<svg width="24" height="24" viewBox="0 0 24 24" fill="none" xmlns="http://www.w3.org/2000/svg">
<path d="M12.0054 0C5.36971 0 0 5.36971 0 12.0055C0 13.3806 0.240109 14.7012 0.676671 15.9345C1.69168 18.8486 3.77626 21.2497 6.48294 22.6467C8.14188 23.5089 10.0191 24 12.0054 24C15.2251 24 18.1391 22.7231 20.2892 20.6603C21.9918 19.0341 23.2142 16.9168 23.7271 14.5266C23.9018 13.708 24 12.8568 24 11.9836C24.0109 5.36971 18.6412 0 12.0054 0ZM19.6999 14.3411C19.6999 16.1419 14.5157 17.1678 14.5157 19.0996C14.5157 19.9618 15.6617 20.6712 17.9536 20.6712H18.5975C16.764 22.0682 14.4829 22.9195 11.9945 22.9195C10.5321 22.9195 9.12414 22.6248 7.8472 22.101C7.53069 21.6317 7.34515 21.1514 7.34515 20.6821C7.34515 16.9823 16.5893 15.9563 16.5893 14.0027C16.5893 13.1187 15.105 12.8786 13.6862 12.8349L9.44065 6.95225C8.80763 6.06821 7.7708 6.06821 7.12687 6.95225L1.4734 14.8213C1.23329 13.9154 1.0914 12.9768 1.0914 12.0055C1.0914 5.99181 5.99181 1.09141 12.0054 1.09141C18.0191 1.09141 22.9195 5.99181 22.9195 12.0055C22.9195 12.442 22.8868 12.8786 22.8322 13.3042L19.2524 8.36016C18.6194 7.47613 17.5716 7.47613 16.9277 8.36016L14.09 12.2892C18.1064 12.4748 19.6999 13.3806 19.6999 14.352V14.3411Z" fill="#5B6187"/>
</svg>
