<svg width="24" height="24" viewBox="0 0 24 24" fill="none" xmlns="http://www.w3.org/2000/svg">
<path d="M6.70641 22.2577C6.79421 22.3666 6.81617 22.4428 6.79421 22.5082C6.78324 22.5408 6.73933 22.5735 6.6625 22.5735C6.6625 22.5735 6.64055 22.5735 6.62957 22.5735C6.49786 22.5626 6.28931 22.4755 6.02589 22.3339C5.55391 22.0617 5.29049 21.8113 5.30146 21.6697C5.30146 21.637 5.32342 21.5608 5.45513 21.5608C5.74051 21.5608 6.42103 21.9093 6.71738 22.2686L6.70641 22.2577ZM3.38064 19.9056C3.38064 19.9056 3.33674 19.8947 3.31479 19.8947C3.27088 19.8947 3.24893 19.9165 3.23795 19.9383C3.20502 19.9819 3.23795 20.0472 3.24893 20.0907C3.31479 20.2323 3.56724 20.5481 4.03921 20.9619C4.21483 21.1143 4.33556 21.2015 4.4124 21.2015C4.42337 21.2015 4.43435 21.2015 4.44533 21.2015C4.47825 21.1906 4.48923 21.1579 4.48923 21.1252C4.48923 20.9292 3.73188 20.0363 3.36967 19.9165L3.38064 19.9056ZM1.76715 18.0544L1.73423 18.0327L1.7013 18.0544L1.66837 18.0762V18.1198C1.66837 18.1198 1.7013 18.1851 1.78911 18.3267C1.94277 18.5662 2.15132 18.8603 2.31596 19.0998L2.35986 19.1652L2.70012 19.6007L2.78793 19.5354C2.78793 19.5354 1.95375 18.1851 1.75618 18.0544H1.76715ZM14.0494 23.7278C14.0494 23.7278 13.9067 23.7387 12.5676 23.8693C12.4908 23.8693 12.425 23.8802 12.3701 23.8911H12.3152V24C12.3372 24 12.3481 24 12.3701 24L12.8969 23.9782C13.2372 23.9456 13.6982 23.8911 14.0165 23.8476C14.0604 23.8476 14.0714 23.8475 14.0933 23.8258L14.1921 23.7495L14.0714 23.7278C14.0714 23.7278 14.0714 23.7278 14.0604 23.7278H14.0494ZM10.6029 23.5862C10.4273 23.5862 10.2846 23.5862 10.1529 23.6189C10.0761 23.6298 10.0322 23.6407 10.0102 23.6624C9.96631 23.6951 9.96631 23.7278 9.96631 23.7387C9.97729 23.804 10.0651 23.8367 10.3834 23.8802C10.7346 23.9347 11.0639 23.9564 11.3164 23.9564C11.6786 23.9564 11.7335 23.902 11.7444 23.8802C11.7664 23.8584 11.7664 23.8258 11.7444 23.7931C11.6676 23.6515 10.9542 23.5862 10.6029 23.5862ZM7.76011 22.7477C7.66133 22.7477 7.59547 22.7586 7.54059 22.7913C7.49669 22.8131 7.47473 22.8566 7.48571 22.9002C7.48571 22.9437 7.49669 23.0635 8.07842 23.2813C8.42966 23.4011 8.72601 23.4664 8.92358 23.4664C9.06627 23.4664 9.1431 23.4338 9.16506 23.3684C9.16506 23.3358 9.16505 23.2922 9.13213 23.2377C8.95651 23.0091 8.15525 22.7477 7.76011 22.7477ZM5.89417 20.069C5.68563 20.069 5.54294 20.1452 5.4661 20.2868C5.36732 20.5045 5.4661 20.9728 6.16858 21.3866C6.16858 21.3866 6.19053 21.3975 6.2015 21.4083C6.22346 21.4083 6.23443 21.4301 6.25638 21.441C6.46493 21.5499 6.67348 21.6044 6.84909 21.6044C7.02471 21.6044 7.17838 21.539 7.26619 21.4301C7.32107 21.3539 7.36497 21.2341 7.29912 21.0381C7.1235 20.5045 6.3881 20.069 5.89417 20.069ZM3.57821 19.6007C3.66602 19.677 3.84164 19.8185 4.02823 19.8512C4.05019 19.8512 4.08311 19.8512 4.10507 19.8512C4.2258 19.8512 4.31361 19.7967 4.36849 19.6987C4.47825 19.4809 4.36849 19.078 4.10507 18.6969C3.83066 18.3158 3.46845 18.0544 3.216 18.0544C3.06234 18.0544 2.95257 18.1525 2.91965 18.3158C2.87574 18.6098 3.08429 19.1543 3.58919 19.6007H3.57821ZM1.9757 17.8149C1.9757 17.8149 1.9757 17.8149 1.98668 17.8149C2.0196 17.8149 2.08546 17.7931 2.11839 17.6951C2.23913 17.3793 1.94277 16.3884 1.52568 15.9528C1.42689 15.8548 1.33909 15.8004 1.26225 15.8004C1.21835 15.8004 1.17444 15.8113 1.15249 15.8439C1.09761 15.8984 1.07566 15.9855 1.07566 16.1162C1.07566 16.4428 1.27323 17.0526 1.62446 17.5427C1.73423 17.6842 1.84399 17.804 1.96472 17.804L1.9757 17.8149ZM0.109761 13.5245C0.109761 13.5245 0.0548806 13.5898 0.0878089 13.8947C0.131713 14.3085 0.285379 14.9619 0.450021 15.4192C0.515877 15.5826 0.53783 15.6479 0.59271 15.6697H0.614662H0.636615C0.669543 15.6479 0.680519 15.6044 0.680519 15.5826C0.724423 15.2668 0.406116 13.7205 0.219522 13.5354C0.186594 13.4918 0.131713 13.4918 0.098785 13.5354L0.109761 13.5245ZM18.5935 21.9746H18.5496C18.385 21.9746 17.5618 22.4211 17.0569 22.7151C16.6727 22.9437 16.6617 22.9655 16.6508 22.9982L16.6069 23.0853H16.7056C16.7056 23.0853 16.7605 23.0635 16.8922 23.0091C17.4191 22.7695 18.0557 22.4211 18.2423 22.323C18.6045 22.1053 18.6155 22.0726 18.6155 22.0181V21.9746H18.5935ZM15.9702 22.6171C15.608 22.6171 14.9495 22.7913 14.4994 23.0853C14.3787 23.1615 14.3238 23.216 14.2909 23.2486C14.2141 23.3358 14.2141 23.4011 14.236 23.4446C14.2689 23.51 14.3677 23.5427 14.5324 23.5427C14.5653 23.5427 14.5982 23.5427 14.6421 23.5427C15.3556 23.4664 16.2117 23.0962 16.2776 22.8348C16.2995 22.7695 16.2776 22.7368 16.2556 22.7042C16.2117 22.6497 16.1129 22.6171 15.9702 22.6171ZM13.4457 22.9111C13.4457 22.8348 13.4238 22.7695 13.3689 22.7042C13.2372 22.5626 12.9299 22.4755 12.5457 22.4755C12.1176 22.4755 11.7335 22.5844 11.503 22.7586C11.3713 22.8566 11.3164 22.9873 11.3383 23.0962C11.3822 23.2486 11.5688 23.3575 11.8981 23.4229C12.0079 23.4338 12.1176 23.4446 12.2164 23.4446C12.864 23.4446 13.4238 23.1942 13.4348 22.9111H13.4457ZM10.2736 22.3013C10.2517 21.8657 9.49434 21.5172 8.89065 21.5172C8.60527 21.5172 8.38575 21.5935 8.26501 21.735C8.18818 21.8221 8.16623 21.931 8.18818 22.0508C8.24306 22.2795 8.49551 22.4864 8.89065 22.6388C9.11017 22.7151 9.34067 22.7586 9.54922 22.7586C9.82362 22.7586 10.0541 22.6824 10.1749 22.5517C10.2407 22.4755 10.2736 22.3884 10.2736 22.3013ZM6.30029 18.0762C6.1137 18.3811 6.1137 19.0563 6.893 19.5354C7.1235 19.6552 7.34302 19.7205 7.56254 19.7205C7.83694 19.7205 8.06744 19.6225 8.21013 19.4374C8.35282 19.2523 8.39673 19.0018 8.33087 18.7405C8.16623 18.098 7.52961 17.7169 7.01374 17.7169C6.70641 17.7169 6.45395 17.8475 6.30029 18.0871V18.0762ZM4.03921 15.539C3.79774 15.539 3.61114 15.6588 3.4904 15.8875C3.33674 16.2033 3.31479 16.9002 3.92945 17.4773C3.92945 17.4773 4.03921 17.5644 4.09409 17.5971C4.23678 17.6842 4.37947 17.7278 4.51118 17.7278C4.69778 17.7278 4.87339 17.6407 4.99413 17.4882C5.16975 17.2486 5.21365 16.9002 5.09292 16.5299C4.92827 15.9746 4.46728 15.5499 4.02823 15.5499L4.03921 15.539ZM1.89887 13.1107C1.71227 13.1107 1.55861 13.2414 1.4708 13.4701C1.32811 13.8076 1.30616 14.559 1.71227 15.147C1.76715 15.2232 1.87692 15.343 2.0196 15.3975C2.07449 15.4192 2.11839 15.4301 2.17327 15.4301C2.30498 15.4301 2.41474 15.3648 2.51353 15.2341C2.74403 14.9074 2.76598 14.2868 2.56841 13.7641C2.41475 13.3721 2.17327 13.1216 1.92082 13.1216L1.89887 13.1107ZM0.702471 10.6279C0.570758 10.6279 0.460997 10.7586 0.373188 10.9982C0.252451 11.3466 0.164642 12.1089 0.351236 12.6969C0.384164 12.7949 0.450021 12.9365 0.570758 12.98C0.59271 12.98 0.603686 12.98 0.625638 12.98C0.702471 12.98 0.768328 12.9365 0.834185 12.8385C1.07566 12.4573 1.18542 11.3358 0.954922 10.8348C0.878089 10.6606 0.779304 10.6171 0.713447 10.6171L0.702471 10.6279ZM0.120737 10.5953C0.241474 10.4646 0.439045 9.59347 0.471973 9.41924C0.526853 9.14701 0.581734 8.88566 0.603686 8.68966C0.647591 8.36298 0.625638 8.29764 0.603686 8.27586L0.581734 8.25408H0.548806C0.548806 8.25408 0.460997 8.28675 0.34026 8.67877C0.318307 8.75499 0.296355 8.83122 0.274403 8.92922C0.219522 9.16878 0.153666 9.47368 0.098785 9.73503C0.0768328 9.83303 0.0658567 9.92014 0.0439044 10.0073C0.0219522 10.1706 0.0109761 10.2468 0 10.3339C0 10.4755 0 10.5191 0 10.5626V10.5953H0.0329283L0.0658567 10.6171L0.098785 10.5844L0.120737 10.5953ZM21.14 19.6225C20.7997 20.0799 20.7997 20.1016 20.7997 20.1343L20.7668 20.2976L20.8875 20.1779L20.9973 20.0581C21.4912 19.4918 21.5242 19.4592 22.2266 18.4138C22.2266 18.4138 22.2596 18.3593 22.2596 18.3267L22.2815 18.1851L22.1717 18.2722C22.0291 18.392 21.2278 19.4918 21.129 19.6225H21.14ZM20.4156 19.7096C20.1082 19.7096 19.4606 20.2105 19.0436 20.7659C18.9448 20.8966 18.8679 21.0272 18.824 21.1252C18.7801 21.2341 18.7801 21.3212 18.8131 21.3757C18.835 21.4083 18.8679 21.441 18.9448 21.441C18.9997 21.441 19.0765 21.4192 19.1753 21.3866C19.8558 21.0599 20.668 20.167 20.5802 19.8403C20.5583 19.7641 20.5034 19.7205 20.4156 19.7205V19.7096ZM18.1106 20.7223C18.0886 20.5154 17.924 20.3956 17.6496 20.3956C17.2435 20.3956 16.5959 20.6897 16.2227 21.1797C16.091 21.3539 15.9702 21.6152 16.069 21.8004C16.1349 21.931 16.2886 21.9964 16.5191 21.9964C16.541 21.9964 16.552 21.9964 16.5739 21.9964C17.4081 21.8984 18.1545 21.1906 18.0996 20.7332L18.1106 20.7223ZM13.4567 21.8548C13.5226 21.8548 13.5884 21.8657 13.6543 21.8657C14.1372 21.8657 14.5982 21.6697 14.8617 21.343C15.0153 21.1579 15.0702 20.951 15.0263 20.7659C14.9495 20.4392 14.6202 20.2323 14.1592 20.2323C13.6653 20.2323 13.1823 20.461 12.9299 20.8094C12.7762 21.0163 12.7433 21.2341 12.8091 21.4192C12.864 21.5717 13.0286 21.7568 13.4457 21.8439L13.4567 21.8548ZM10.0102 20.9619C10.1968 21.0272 10.3724 21.049 10.548 21.049C10.8993 21.049 11.2176 20.9183 11.4042 20.7005C11.5469 20.5372 11.6127 20.3303 11.5798 20.1234C11.492 19.5572 10.8554 19.2523 10.2956 19.2523C9.88948 19.2523 9.54922 19.4047 9.3736 19.677C9.25286 19.8621 9.21994 20.069 9.28579 20.2759C9.3736 20.559 9.62605 20.7985 10.0102 20.9619ZM9.58215 16.5735C9.79069 16.3122 9.86753 15.9637 9.77972 15.6152C9.648 15.0708 9.16505 14.6788 8.61625 14.6788C8.26501 14.6788 7.94671 14.8421 7.74914 15.1361C7.58449 15.3757 7.52961 15.7024 7.58449 16.0073C7.65035 16.3339 7.8589 16.6062 8.16623 16.8022C8.3638 16.9002 8.56137 16.9546 8.74796 16.9546C9.06627 16.9546 9.36262 16.8131 9.56019 16.5626L9.58215 16.5735ZM6.41005 14.6025C6.64055 14.3303 6.75031 13.9492 6.68445 13.5572C6.59664 12.9909 6.19053 12.588 5.70758 12.588C5.4222 12.588 5.16975 12.7296 4.97218 12.98C4.6868 13.3612 4.54411 14.1452 5.13682 14.7005C5.13682 14.7005 5.15877 14.7223 5.16975 14.7332C5.1917 14.7441 5.20268 14.7659 5.22463 14.7768C5.3783 14.8857 5.55391 14.9401 5.72953 14.9401C5.98198 14.9401 6.22346 14.8203 6.41005 14.6134V14.6025ZM2.9855 12.4356C3.10624 12.5336 3.22698 12.5771 3.36967 12.5771C3.56724 12.5771 3.76481 12.4791 3.94042 12.2831C4.21483 11.9782 4.35752 11.51 4.31361 11.0635C4.25873 10.5626 3.97335 10.225 3.60017 10.225C3.38064 10.225 3.16112 10.3448 2.9855 10.5626C2.68915 10.9111 2.46963 11.6842 2.87574 12.294C2.91965 12.3485 2.96355 12.4029 3.00746 12.4356H2.9855ZM2.82086 8.38475C2.79891 8.0363 2.63427 7.8294 2.40377 7.8294C2.23913 7.8294 2.05253 7.93829 1.88789 8.12341C1.60251 8.45009 1.28421 9.19056 1.4708 9.80036C1.49275 9.8657 1.52568 9.94192 1.58056 9.99637C1.64642 10.0617 1.73423 10.0944 1.82203 10.0944C1.96472 10.0944 2.12937 10.0073 2.28303 9.84392C2.57939 9.52813 2.86477 8.92922 2.82086 8.38475ZM1.27323 7.67695C1.37201 7.67695 1.49275 7.58984 1.64642 7.4265C2.00863 7.02359 2.50255 6.13067 2.44767 5.71688C2.42572 5.56443 2.32694 5.54265 2.28303 5.54265C2.15132 5.54265 1.98668 5.6951 1.86594 5.82577C1.60251 6.13067 1.1964 6.8167 1.11956 7.37205C1.11956 7.44828 1.10859 7.57895 1.18542 7.64428C1.20737 7.66606 1.2403 7.67695 1.28421 7.67695H1.27323ZM1.90984 5.49909C2.07449 5.30309 3.29283 3.80036 3.31479 3.71325L3.39162 3.51724L3.22698 3.64791C3.22698 3.64791 3.22698 3.64791 3.216 3.6588L2.91965 3.97459C2.57939 4.38838 2.12937 4.97641 1.80008 5.43376L1.59154 5.72777L1.87692 5.50998C1.87692 5.50998 1.87692 5.50998 1.87692 5.49909H1.90984ZM23.7962 13.8512C23.7413 14.1887 23.6645 14.5699 23.5986 14.8639C23.5438 15.0926 23.5218 15.2123 23.4999 15.2777L23.6096 15.3103C23.7633 14.7332 23.7962 14.6134 23.906 13.873C23.9389 13.6552 23.9718 13.4701 23.9828 13.3503H23.873C23.8401 13.5354 23.8182 13.7096 23.7962 13.8512ZM23.2364 15.2123C23.0059 15.2123 22.6218 15.9964 22.4352 16.7042C22.3364 17.0526 22.3364 17.2269 22.3474 17.2813C22.3474 17.4338 22.4242 17.4664 22.4681 17.4664C22.534 17.4664 22.6108 17.4011 22.6657 17.3249C23.0828 16.7804 23.4779 15.5826 23.3462 15.2886C23.3133 15.2232 23.2584 15.2123 23.2364 15.2123ZM20.5802 18.7405C20.6351 18.7405 20.7009 18.7296 20.7778 18.6969C21.4473 18.3593 21.9303 17.2595 21.7327 16.8022C21.6559 16.6279 21.5351 16.5953 21.4473 16.5953C21.0851 16.5953 20.5692 17.1724 20.3497 17.8258C20.2619 18.098 20.218 18.4465 20.3497 18.6207C20.4046 18.6969 20.4814 18.7296 20.5802 18.7296V18.7405ZM18.0886 19.3285H18.1106C18.5277 19.2632 18.9338 18.9583 19.1753 18.5336C19.3619 18.1851 19.4167 17.8367 19.296 17.5753C19.1972 17.3575 19.0106 17.2486 18.7801 17.2486C18.385 17.2486 17.8142 17.5971 17.5618 18.2287C17.452 18.49 17.4081 18.8494 17.5728 19.0998C17.6715 19.2523 17.8472 19.3285 18.0777 19.3285H18.0886ZM16.1129 18.6642C16.3325 18.3702 16.4203 18.0109 16.3325 17.706C16.2227 17.3249 15.9044 17.1071 15.4873 17.1071C14.9934 17.1071 14.5324 17.412 14.3019 17.8802C14.1921 18.1089 14.1263 18.4574 14.2689 18.7514C14.3787 18.98 14.5982 19.1325 14.9056 19.1978C14.9056 19.1978 14.9934 19.1978 15.0373 19.1978C15.4544 19.1978 15.8495 18.9909 16.1129 18.6534V18.6642ZM12.7213 17.9129C12.9299 17.6515 13.0177 17.3031 12.9518 17.0091C12.8201 16.4319 12.2932 16.1706 11.8213 16.1706C11.3822 16.1706 10.9981 16.3884 10.7785 16.7477C10.6249 16.9982 10.5919 17.3249 10.6798 17.608C10.7456 17.8149 10.9212 18.098 11.3603 18.2831C11.503 18.3267 11.6566 18.3485 11.7883 18.3485C12.1506 18.3485 12.4908 18.1851 12.7103 17.9129H12.7213ZM10.5041 11.4991C10.1419 11.4991 9.79069 11.6842 9.56019 12C9.35165 12.2831 9.26384 12.6316 9.31872 12.9474C9.3736 13.2305 9.53824 13.4809 9.81265 13.6443C9.97729 13.7314 10.1419 13.7641 10.3066 13.7641C10.6139 13.7641 10.8993 13.6225 11.1188 13.3829C11.3603 13.0998 11.481 12.7078 11.4261 12.3376C11.3493 11.8149 10.9871 11.4882 10.5151 11.4882L10.5041 11.4991ZM7.01374 11.7169C7.17838 11.8367 7.36497 11.902 7.55157 11.902C7.81499 11.902 8.0894 11.7822 8.30892 11.5535C8.57234 11.2813 8.72601 10.9111 8.72601 10.5408C8.72601 10.0181 8.4077 9.68058 7.92475 9.68058C7.6284 9.68058 7.32107 9.82214 7.09057 10.0617C6.893 10.2577 6.69543 10.6062 6.69543 10.9982C6.69543 11.2704 6.80519 11.51 7.00276 11.706L7.01374 11.7169ZM4.90632 9.50635C5.04901 9.66969 5.23561 9.75681 5.43318 9.75681C5.97101 9.75681 6.59664 9.12523 6.68445 8.48276C6.71738 8.22142 6.67348 8.01452 6.54176 7.86207C6.42103 7.7314 6.24541 7.65517 6.04784 7.65517C5.80636 7.65517 5.55391 7.75318 5.32341 7.9274C4.92827 8.24319 4.54411 8.92922 4.90632 9.49546V9.50635ZM5.35634 5.71688C5.26853 5.60799 5.13682 5.55354 4.97218 5.55354C4.78559 5.55354 4.56606 5.62976 4.36849 5.74955C3.89652 6.05445 3.4904 6.67514 3.63309 7.18693C3.63309 7.18693 3.63309 7.20871 3.63309 7.2196C3.63309 7.23049 3.64407 7.25227 3.65505 7.26316C3.73188 7.40472 3.87457 7.48094 4.05019 7.48094C4.53313 7.48094 5.25756 6.90381 5.4222 6.22867C5.48806 5.95644 5.4222 5.80399 5.35634 5.71688ZM3.29283 4.96552C3.29283 4.96552 3.29283 5.0853 3.32576 5.15064C3.35869 5.21597 3.42455 5.28131 3.56724 5.28131C4.00628 5.28131 4.92828 4.51906 5.10389 4.00726C5.15877 3.83303 5.12584 3.73503 5.08194 3.66969C5.04901 3.61524 4.97218 3.5608 4.82949 3.5608C4.69778 3.5608 4.52216 3.61524 4.34654 3.71325C3.89652 3.95281 3.38064 4.49728 3.30381 4.96552H3.29283ZM4.08311 3.29946C4.40142 3.29946 5.78441 2.38475 5.86124 2.04719C5.87222 2.00363 5.86124 1.97096 5.83929 1.94918C5.81734 1.91652 5.78441 1.90563 5.72953 1.90563C5.61977 1.90563 5.44415 1.98185 5.32341 2.0363C4.92827 2.2323 4.34654 2.65699 4.03921 3.01633C3.98433 3.09256 3.92945 3.16878 3.96238 3.23412C3.97335 3.2559 4.00628 3.28857 4.07214 3.28857L4.08311 3.29946ZM5.68563 1.81851C5.79539 1.75318 5.90515 1.69873 5.99296 1.64428C6.57469 1.33938 7.40888 0.958258 7.4418 0.947368L7.41985 0.892922V0.849365L7.33204 0.882033C6.76129 1.1216 6.65152 1.16515 5.93808 1.55717C5.80636 1.6225 5.70758 1.68784 5.61977 1.7314L5.67465 1.8294L5.68563 1.81851ZM23.6535 9.63702L23.7633 9.61524C23.7633 9.61524 23.7523 9.5608 23.7413 9.52813C23.6645 9.19056 23.5438 8.76588 23.445 8.45009L23.3352 8.48276C23.434 8.83122 23.5657 9.29946 23.6425 9.63702H23.6535ZM23.7304 10.1924C23.7304 10.1924 23.6425 10.1706 23.6096 10.2033C23.4889 10.3448 23.5547 11.2051 23.6316 11.7713C23.6755 12.098 23.7304 12.3158 23.7852 12.392C23.8072 12.4247 23.8291 12.4465 23.8621 12.4465C23.9499 12.4465 23.9609 12.3267 23.9828 12.2178C24.0487 11.5644 23.917 10.323 23.7304 10.1924ZM23.1816 11.9891C23.0828 11.9129 22.973 11.9238 22.8742 12.0218C22.6876 12.2287 22.5669 12.8167 22.5998 13.4047C22.5998 13.5463 22.6657 14.2432 22.962 14.2432C23.0279 14.2432 23.0937 14.2105 23.1706 14.1343C23.5767 13.5681 23.5218 12.2613 23.1706 12L23.1816 11.9891ZM21.7986 13.3067C21.6998 13.1869 21.59 13.1216 21.4693 13.1216C21.118 13.1216 20.7888 13.7096 20.7449 14.3956C20.7339 14.7005 20.7778 15.1034 20.9754 15.2995C21.0522 15.3757 21.151 15.4192 21.2607 15.4192C21.3156 15.4192 21.3705 15.4192 21.4254 15.3866C21.6888 15.245 21.8973 14.9183 21.9742 14.5045C22.073 14.0254 21.9961 13.5572 21.7876 13.2958L21.7986 13.3067ZM19.746 15.3212C19.9436 14.8639 19.9216 14.3194 19.6911 13.971C19.5265 13.7314 19.3399 13.677 19.2082 13.677C18.8021 13.677 18.396 14.1452 18.2862 14.755C18.2094 15.1579 18.2862 15.5281 18.4728 15.7568C18.5935 15.8984 18.7692 15.9855 18.9667 15.9855H18.9887C19.318 15.931 19.5924 15.6915 19.757 15.3321L19.746 15.3212ZM17.002 15.3212C17.2544 14.9074 17.2764 14.3848 17.0679 13.9927C16.9142 13.7096 16.6837 13.5572 16.4093 13.5572C15.9812 13.5572 15.5641 13.9165 15.3885 14.4283C15.2678 14.7877 15.2897 15.1579 15.4434 15.4301C15.5641 15.6479 15.7617 15.7895 16.0251 15.8439C16.0251 15.8439 16.091 15.8439 16.1129 15.8439C16.4751 15.8439 16.7935 15.6479 17.002 15.3103V15.3212ZM12.7433 15.0054C12.853 15.0381 12.9628 15.0599 13.0726 15.0599C13.4018 15.0599 13.7201 14.8966 13.9287 14.6134C14.1811 14.2868 14.258 13.8512 14.1482 13.4592C14.0165 13.0127 13.6872 12.7514 13.2701 12.7514C12.853 12.7514 12.4579 13.0127 12.2384 13.4156C12.1067 13.6552 12.0188 14.0363 12.1506 14.3956C12.2493 14.6679 12.4469 14.8748 12.7433 15.0054ZM11.6018 10.4319C11.7225 10.4973 11.8432 10.5191 11.964 10.5191C12.2274 10.5191 12.4798 10.3884 12.6994 10.1597C12.9847 9.85481 13.1274 9.40835 13.0835 9.00544C13.0396 8.61343 12.8311 8.38475 12.4908 8.38475C12.1725 8.38475 11.8103 8.59165 11.5578 8.91833C11.3164 9.22323 11.1956 9.59347 11.2505 9.89837C11.2834 10.1162 11.4042 10.3122 11.6018 10.4319ZM9.11017 8.30853C9.11017 8.51543 9.16506 8.68965 9.30774 8.83121C9.43946 8.92922 9.59312 8.98367 9.75776 8.98367C10.3944 8.98367 11.02 8.2323 11.0749 7.63339C11.0969 7.43739 11.0529 7.29583 10.9542 7.18693C10.8664 7.08893 10.7237 7.03448 10.548 7.03448C10.2627 7.03448 9.92241 7.17604 9.648 7.39383C9.3297 7.64428 9.13213 8.00363 9.11017 8.30853ZM9.04432 5.49909C8.80284 5.49909 8.51746 5.57532 8.25404 5.71688C7.88085 5.92377 7.59547 6.22867 7.50766 6.53358C7.46376 6.7078 7.48571 6.87114 7.57352 7.0127C7.69426 7.15426 7.8589 7.2196 8.05647 7.2196C8.61625 7.2196 9.38458 6.63158 9.54922 6.07622C9.6041 5.86933 9.54922 5.74955 9.50531 5.67332C9.41751 5.55354 9.25286 5.49909 9.04432 5.49909ZM8.64918 4.39927C8.70406 4.25771 8.67113 4.15971 8.6382 4.09437C8.56137 3.97459 8.37477 3.90926 8.1333 3.90926C7.94671 3.90926 7.72718 3.95281 7.52961 4.01815C6.95886 4.21416 6.432 4.6824 6.54176 5.11797C6.6186 5.30308 6.79421 5.3902 7.02471 5.3902C7.58449 5.3902 8.47356 4.85662 8.66015 4.39927H8.64918ZM6.26736 3.28857V3.29946C6.26736 3.29946 6.26736 3.31034 6.26736 3.32123C6.26736 3.33212 6.26736 3.34301 6.26736 3.3539C6.27834 3.46279 6.36615 3.59347 6.68445 3.59347C7.18935 3.59347 8.12232 3.23412 8.39673 2.86388C8.48454 2.73321 8.47356 2.6461 8.44063 2.59165C8.37477 2.47187 8.1772 2.39564 7.9028 2.39564C7.78206 2.39564 7.65035 2.40653 7.51864 2.4392C6.96983 2.54809 6.35517 2.88566 6.27834 3.29946L6.26736 3.28857ZM8.47356 1.1216C8.41868 1.1216 8.35282 1.1216 8.28697 1.1216C7.80402 1.16515 7.14545 1.39383 6.893 1.68784C6.893 1.68784 6.83812 1.78584 6.83812 1.8294C6.84909 1.98185 7.10155 1.98185 7.18935 1.98185C7.69426 1.98185 8.73699 1.72051 8.95651 1.43739C9.01139 1.36116 9.00041 1.29583 8.97846 1.27405C8.92358 1.17604 8.74796 1.1216 8.48454 1.1216H8.47356ZM8.37477 0.860254C8.81382 0.860254 10.0322 0.675136 10.1529 0.522686C10.1749 0.490018 10.1858 0.45735 10.1639 0.424682C10.12 0.337568 9.91143 0.315789 9.74679 0.315789C9.73581 0.315789 9.71386 0.315789 9.70288 0.315789C9.28579 0.315789 8.66015 0.45735 8.27599 0.62069C8.18818 0.664247 8.12232 0.707804 8.12232 0.76225C8.12232 0.849365 8.25404 0.860254 8.37477 0.860254ZM11.8652 0.141561V0.0980036V0.0544465L11.8432 0.0326679C11.8213 0.0217786 11.7774 0 11.6127 0H11.6018C11.6018 0 11.5469 0 11.5249 0L11.02 0.0217786C10.7566 0.0435572 10.4054 0.0871143 10.131 0.119782H10.0212V0.141561L9.88948 0.250454H10.0541C11.1956 0.214156 11.7993 0.177858 11.8652 0.141561ZM13.7201 0.261343H13.7421C13.7421 0.261343 13.764 0.261343 13.775 0.261343V0.15245C13.775 0.15245 13.7531 0.15245 13.7311 0.15245C13.6872 0.15245 13.2811 0.0871143 12.9079 0.0544465V0.163339H12.9518C13.1933 0.196007 13.4896 0.228675 13.7201 0.261343ZM21.5132 5.03085C21.601 5.15063 21.7437 5.31397 21.8644 5.4882C21.9412 5.58621 21.9961 5.66243 22.0291 5.71688L22.062 5.76044L22.1498 5.70599C22.1498 5.70599 22.1278 5.67332 22.1169 5.66243C21.9522 5.41198 21.7327 5.10708 21.5461 4.84573L21.1839 4.38838C21.14 4.33394 21.129 4.31216 21.0851 4.31216H20.9973L21.0302 4.3775C21.0632 4.46461 21.2388 4.69328 21.5132 5.04174V5.03085ZM22.0291 5.88022C22.0291 5.88022 21.9742 5.89111 21.9522 5.92377C21.8973 6.03267 22.1059 6.45735 22.5779 7.17604C22.8852 7.64428 22.9291 7.65517 22.973 7.66606H22.995L23.0169 7.64428C23.0169 7.64428 23.0498 7.53539 23.0169 7.41561C22.7974 6.79492 22.2705 5.91289 22.051 5.88022C22.051 5.88022 22.04 5.88022 22.0291 5.88022ZM23.0937 9.41924C23.0937 9.41924 23.2145 9.38657 23.2364 9.24501C23.2803 8.59165 22.6876 7.50272 22.3364 7.40472C22.2705 7.38294 22.2047 7.40472 22.1717 7.45916C22.051 7.66606 22.3693 8.39564 22.5559 8.75499C22.6766 8.98367 22.7645 9.11434 22.7974 9.16878C22.962 9.38657 23.0389 9.41924 23.0937 9.41924ZM22.4022 10.9002C22.4681 10.9002 22.523 10.8784 22.5779 10.824C22.7535 10.5517 22.6767 10.1162 22.6218 9.88748C22.512 9.46279 22.2486 8.91833 21.9193 8.75499C21.7876 8.68965 21.6888 8.70054 21.6229 8.79855C21.4803 9.00544 21.59 9.58258 21.7547 10.029C21.9083 10.4428 22.1608 10.9002 22.4132 10.9002H22.4022ZM21.0193 11.8911C21.0193 11.8911 21.0961 11.8911 21.129 11.8693C21.3266 11.7604 21.4363 11.51 21.4363 11.1724C21.4363 10.6388 21.1729 9.89837 20.7668 9.6588C20.6131 9.57169 20.4705 9.58258 20.3826 9.70236C20.229 9.88748 20.196 10.323 20.2839 10.824C20.3826 11.314 20.6241 11.902 21.0083 11.902L21.0193 11.8911ZM18.363 11.0853C18.363 11.5862 18.5716 12.3376 19.1204 12.3485C19.3509 12.3049 19.5265 12.1307 19.6143 11.8584C19.7899 11.3249 19.6143 10.5626 19.2411 10.1706C19.1314 10.0508 19.0106 9.99637 18.9009 9.99637C18.8131 9.99637 18.7252 10.0399 18.6484 10.1053C18.4728 10.2795 18.363 10.6497 18.363 11.0744V11.0853ZM17.3642 11.8475C17.6167 11.3902 17.6057 10.7042 17.3203 10.2468C17.1557 9.97459 16.9691 9.90926 16.8374 9.90926C16.5081 9.90926 16.2007 10.2795 16.091 10.824C15.9593 11.412 16.1239 12.1089 16.6837 12.2396C16.6837 12.2396 16.7166 12.2396 16.7386 12.2396C16.991 12.2396 17.2105 12.098 17.3532 11.8475H17.3642ZM13.6543 10.029C13.4896 10.3775 13.4457 10.7586 13.5555 11.0635C13.6323 11.2813 13.797 11.4446 14.0055 11.5426C14.0824 11.5644 14.1592 11.5753 14.236 11.5753C14.4994 11.5753 14.7409 11.4446 14.9165 11.2051C15.18 10.8457 15.2678 10.3013 15.1361 9.85481C14.9934 9.39746 14.708 9.32123 14.5543 9.32123C14.225 9.32123 13.8519 9.61524 13.6543 10.029ZM14.4116 5.58621C14.1811 5.58621 13.8299 5.84755 13.5994 6.10889C13.336 6.42468 13.1823 6.77314 13.2152 7.03448C13.2372 7.17604 13.303 7.28494 13.4128 7.37205C13.4787 7.40472 13.5445 7.4265 13.6214 7.4265C13.808 7.4265 13.9945 7.32849 14.1702 7.14338C14.4775 6.8167 14.686 6.29401 14.6641 5.902C14.6421 5.62976 14.4885 5.58621 14.4007 5.58621H14.4116ZM13.303 4.83485C13.0616 4.83485 12.6664 4.99818 12.414 5.16152C12.1176 5.34664 11.7883 5.66243 11.7444 5.96733C11.7335 6.08711 11.7664 6.19601 11.8432 6.28312C11.9201 6.34846 12.0188 6.38112 12.1286 6.38112C12.6994 6.38112 13.4567 5.58621 13.5445 5.13975C13.5665 5.05263 13.5445 4.97641 13.5116 4.92196C13.4677 4.86751 13.3909 4.84573 13.2921 4.84573L13.303 4.83485ZM10.6688 5.04174C10.7566 5.12886 10.8773 5.17241 11.031 5.17241C11.6347 5.17241 12.5896 4.54083 12.7213 4.25771C12.7652 4.18149 12.7433 4.11615 12.7213 4.08348C12.6774 4.00726 12.5567 3.97459 12.3701 3.97459C12.1396 3.97459 11.8322 4.02904 11.5578 4.12704C11.0969 4.27949 10.7346 4.52995 10.6359 4.76951C10.6029 4.86751 10.6029 4.95463 10.6468 5.03085L10.6688 5.04174ZM12.2274 3.36479C12.2823 3.29946 12.2603 3.24501 12.2493 3.22323C12.1725 3.05989 11.7115 3.049 11.5139 3.049C11.3822 3.049 11.2395 3.049 11.1078 3.07078C10.581 3.13612 10.1529 3.29946 9.99924 3.51724C9.94436 3.59347 9.93338 3.6588 9.94436 3.73503V3.74592C10.0102 3.87659 10.1749 3.94192 10.4383 3.94192C11.0529 3.94192 12.0737 3.5608 12.2274 3.37568V3.36479ZM9.75776 2.46098V2.48276C9.76874 2.67877 10.0541 2.76588 10.5919 2.76588C11.1298 2.76588 11.931 2.6461 12.0957 2.50454C12.1396 2.47187 12.1506 2.42831 12.1286 2.38475C12.0627 2.21053 11.492 2.10163 11.1078 2.07985C11.042 2.07985 10.9651 2.07985 10.8993 2.07985C10.3834 2.07985 9.82362 2.19964 9.75776 2.47187V2.46098ZM10.1858 1.36116V1.37205C10.1858 1.37205 10.1858 1.38294 10.1749 1.40472C10.1639 1.44828 10.1749 1.49183 10.1968 1.5245C10.3615 1.75318 11.3713 1.8294 11.8432 1.8294C12.1396 1.8294 12.3262 1.80762 12.392 1.76407C12.4359 1.74229 12.4469 1.69873 12.4469 1.65517C12.414 1.49183 11.9201 1.32849 11.6237 1.26316C11.3932 1.20871 11.1517 1.18693 10.9322 1.18693C10.5919 1.18693 10.3285 1.25227 10.2188 1.36116H10.1858ZM12.4798 0.76225C12.1725 0.642468 11.8103 0.577133 11.5139 0.577133C11.3603 0.577133 11.2395 0.598911 11.1517 0.631579C11.1517 0.631579 11.0749 0.675136 11.0749 0.729583C11.0749 0.751361 11.0749 0.784029 11.0969 0.816697C11.2725 1.02359 12.6006 1.29583 12.9299 1.29583C12.9738 1.29583 13.0067 1.29583 13.0286 1.28494C13.0616 1.26316 13.0835 1.23049 13.0835 1.19782C13.0835 1.06715 12.7762 0.882033 12.4908 0.784029L12.4798 0.76225ZM13.8738 1.04537C13.8738 1.04537 13.9177 1.04537 13.9287 1.04537C13.9726 1.03448 13.9945 1.00181 14.0055 0.958258C14.0165 0.838475 13.8299 0.686025 13.6762 0.588022C13.336 0.381125 12.886 0.294011 12.6006 0.294011C12.5676 0.294011 12.5457 0.294011 12.5237 0.294011C12.5237 0.294011 12.403 0.3049 12.3701 0.348457C12.3481 0.370236 12.3481 0.402904 12.3701 0.424682C12.4579 0.598911 13.6214 1.05626 13.8848 1.05626L13.8738 1.04537ZM15.0153 1.07804C15.1141 1.07804 15.147 1.02359 15.169 0.990926C15.2019 0.914701 15.169 0.805808 15.0812 0.707804C14.8836 0.490018 14.4665 0.359347 14.1592 0.315789C14.1153 0.315789 14.0714 0.315789 14.0275 0.315789C13.9726 0.315789 13.9397 0.315789 13.9177 0.337568C13.8958 0.359347 13.8848 0.392015 13.8958 0.424682C13.9506 0.588022 14.7738 1.07804 15.0043 1.07804H15.0153ZM16.3654 1.40472C16.4971 1.40472 16.5959 1.33938 16.6069 1.23049C16.6178 1.14338 16.5739 0.990926 15.9922 0.784029C15.9154 0.76225 15.8276 0.729583 15.7507 0.718693C15.7178 0.718693 15.6958 0.718693 15.6739 0.718693C15.619 0.718693 15.5861 0.740472 15.5641 0.77314C15.5422 0.827586 15.5641 0.882033 15.608 0.936479C15.8715 1.29583 16.1788 1.4265 16.3654 1.4265V1.40472ZM17.3862 1.93829C17.5289 2.02541 17.7484 2.05808 17.913 2.05808C17.9569 2.05808 17.9898 2.05808 18.0118 2.05808C18.0228 2.05808 18.0338 2.05808 18.0447 2.05808C18.1106 2.04719 18.1545 2.01452 18.1545 1.97096C18.1655 1.90563 18.1106 1.8294 17.8252 1.65517C17.5728 1.51361 17.3971 1.43739 17.2764 1.43739C17.2105 1.43739 17.1666 1.47005 17.1557 1.49183C17.1337 1.5245 17.1227 1.57895 17.1337 1.63339C17.1557 1.75318 17.2435 1.87296 17.3752 1.94918L17.3862 1.93829ZM19.1862 2.99456C19.2741 3.01633 19.3728 3.049 19.4387 3.049C19.5046 3.049 19.5265 3.01633 19.5375 2.99456C19.5594 2.91833 19.4826 2.84211 19.3838 2.75499C19.0765 2.49365 18.7692 2.33031 18.5606 2.33031C18.4948 2.33031 18.4508 2.3412 18.4069 2.37387C18.363 2.40653 18.3082 2.46098 18.3191 2.5372C18.3411 2.68966 18.6265 2.85299 19.1753 3.00544L19.1862 2.99456ZM19.2411 3.28857C19.2411 3.28857 19.1423 3.32123 19.1423 3.38657C19.1423 3.47368 19.2411 3.61524 20.0314 4.02904C20.1741 4.10526 20.3717 4.20327 20.4814 4.22505C20.5034 4.22505 20.5144 4.22505 20.5253 4.22505C20.5802 4.22505 20.6022 4.19238 20.6131 4.18149C20.6461 4.12704 20.5912 4.03993 20.5583 3.99637C20.2619 3.60436 19.7021 3.27768 19.3619 3.27768C19.318 3.27768 19.2741 3.27768 19.2411 3.29946V3.28857ZM19.7351 4.19238C19.6582 4.19238 19.6363 4.24682 19.6363 4.2686C19.6253 4.32305 19.5924 4.43194 20.4595 5.07441C20.6022 5.1833 20.7229 5.27042 20.8327 5.33575C20.9863 5.43376 21.0961 5.47731 21.1619 5.47731C21.2059 5.47731 21.2388 5.45553 21.2498 5.44465C21.2827 5.40109 21.2717 5.33575 21.2607 5.31397C21.0412 4.76951 20.1412 4.20327 19.768 4.20327C19.757 4.20327 19.746 4.20327 19.7351 4.20327V4.19238ZM21.2717 6.67514C21.3376 6.67514 21.3924 6.63158 21.4144 6.56624C21.4144 6.02178 20.2839 5.0853 19.8668 5.05263C19.779 5.05263 19.757 5.0853 19.746 5.10708C19.7241 5.15064 19.6692 5.28131 20.4375 6.05445C20.8436 6.45735 21.118 6.66425 21.2717 6.66425V6.67514ZM20.8217 7.68784C20.8217 7.68784 20.9095 7.67695 20.9424 7.64428V7.63339C21.0083 7.51361 20.9973 7.33938 20.8875 7.1216C20.6351 6.57713 19.9107 5.84755 19.5594 5.78221C19.5485 5.78221 19.5375 5.78221 19.5265 5.78221C19.4606 5.78221 19.4387 5.81488 19.4277 5.83666C19.3509 5.98911 19.6582 6.46824 19.9216 6.84936C20.1412 7.16515 20.5583 7.69873 20.8217 7.69873V7.68784ZM19.9546 8.36298C20.0534 8.29764 20.0973 8.17786 20.0863 8.01452C20.0424 7.44828 19.3399 6.45735 18.9448 6.28312C18.857 6.25045 18.7911 6.26134 18.7582 6.31579C18.6484 6.49002 18.9228 7.13249 19.0106 7.32849C19.1533 7.64428 19.5265 8.37387 19.8777 8.37387C19.8997 8.37387 19.9216 8.37387 19.9436 8.37387L19.9546 8.36298ZM18.0667 6.52269C18.0667 6.52269 17.9789 6.47913 17.935 6.47913C17.8911 6.47913 17.8581 6.50091 17.8252 6.53358C17.6715 6.71869 17.8033 7.41561 17.8252 7.49183C17.935 8.0363 18.1984 8.67877 18.5716 8.68966C18.6594 8.66788 18.7801 8.60254 18.824 8.39564C18.9228 7.86207 18.4289 6.77314 18.0557 6.52269H18.0667ZM16.9252 8.61343C16.9252 8.61343 16.9361 8.61343 16.9471 8.61343C17.1008 8.61343 17.2325 8.52632 17.3093 8.36298C17.5179 7.91651 17.3642 6.94737 17.024 6.54446C16.9581 6.46824 16.8922 6.42468 16.8264 6.42468C16.5081 6.42468 16.4312 7.30671 16.4312 7.3176C16.3873 7.88385 16.5191 8.51543 16.9252 8.61343ZM15.0812 8.1343C15.0812 8.1343 15.169 8.15608 15.2019 8.15608C15.3666 8.15608 15.5202 8.05808 15.641 7.88385C15.8934 7.50272 15.9812 6.71869 15.8056 6.31579C15.7397 6.17423 15.6519 6.098 15.5422 6.098C15.2897 6.098 15.0153 6.52269 14.8946 6.80581C14.6751 7.3176 14.6641 7.93829 15.0702 8.1343H15.0812ZM14.0933 2.49365C13.808 3.11434 14.4665 4.02904 15.5751 4.54083C16.0361 4.74773 16.53 4.86751 16.9581 4.86751C17.5289 4.86751 17.935 4.67151 18.0996 4.33394C18.385 3.71325 17.7264 2.79855 16.6178 2.28675C16.1568 2.07985 15.6629 1.96007 15.2348 1.96007C14.6641 1.96007 14.258 2.15608 14.0933 2.49365Z" fill="#5B6187"/>
</svg>
