<svg width="24" height="24" viewBox="0 0 24 24" fill="none" xmlns="http://www.w3.org/2000/svg">
<mask id="mask0_4743_341" style="mask-type:alpha" maskUnits="userSpaceOnUse" x="0" y="0" width="24" height="24">
<rect width="24" height="24" fill="#D9D9D9"/>
</mask>
<g mask="url(#mask0_4743_341)">
<path d="M15.5 11C15.0833 11 14.7292 10.8542 14.4375 10.5625C14.1458 10.2708 14 9.91667 14 9.5C14 9.28333 14.0792 9.03333 14.2375 8.75C14.3958 8.46667 14.5667 8.19583 14.75 7.9375C14.9333 7.67917 15.1042 7.45833 15.2625 7.275L15.5 7L15.7375 7.275C15.8958 7.45833 16.0667 7.67917 16.25 7.9375C16.4333 8.19583 16.6042 8.46667 16.7625 8.75C16.9208 9.03333 17 9.28333 17 9.5C17 9.91667 16.8542 10.2708 16.5625 10.5625C16.2708 10.8542 15.9167 11 15.5 11ZM19.5 8C19.0833 8 18.7292 7.85417 18.4375 7.5625C18.1458 7.27083 18 6.91667 18 6.5C18 6.28333 18.0792 6.03333 18.2375 5.75C18.3958 5.46667 18.5667 5.19583 18.75 4.9375C18.9333 4.67917 19.1042 4.45833 19.2625 4.275L19.5 4L19.7375 4.275C19.8958 4.45833 20.0667 4.67917 20.25 4.9375C20.4333 5.19583 20.6042 5.46667 20.7625 5.75C20.9208 6.03333 21 6.28333 21 6.5C21 6.91667 20.8542 7.27083 20.5625 7.5625C20.2708 7.85417 19.9167 8 19.5 8ZM19.5 14C19.0833 14 18.7292 13.8542 18.4375 13.5625C18.1458 13.2708 18 12.9167 18 12.5C18 12.2833 18.0792 12.0333 18.2375 11.75C18.3958 11.4667 18.5667 11.1958 18.75 10.9375C18.9333 10.6792 19.1042 10.4583 19.2625 10.275L19.5 10L19.7375 10.275C19.8958 10.4583 20.0667 10.6792 20.25 10.9375C20.4333 11.1958 20.6042 11.4667 20.7625 11.75C20.9208 12.0333 21 12.2833 21 12.5C21 12.9167 20.8542 13.2708 20.5625 13.5625C20.2708 13.8542 19.9167 14 19.5 14ZM9 21C7.61667 21 6.4375 20.5125 5.4625 19.5375C4.4875 18.5625 4 17.3833 4 16C4 15.2 4.175 14.4542 4.525 13.7625C4.875 13.0708 5.36667 12.4833 6 12V6C6 5.16667 6.29167 4.45833 6.875 3.875C7.45833 3.29167 8.16667 3 9 3C9.83333 3 10.5417 3.29167 11.125 3.875C11.7083 4.45833 12 5.16667 12 6V12C12.6333 12.4833 13.125 13.0708 13.475 13.7625C13.825 14.4542 14 15.2 14 16C14 17.3833 13.5125 18.5625 12.5375 19.5375C11.5625 20.5125 10.3833 21 9 21ZM6 16H12C12 15.5167 11.8958 15.0667 11.6875 14.65C11.4792 14.2333 11.1833 13.8833 10.8 13.6L10 13V6C10 5.71667 9.90417 5.47917 9.7125 5.2875C9.52083 5.09583 9.28333 5 9 5C8.71667 5 8.47917 5.09583 8.2875 5.2875C8.09583 5.47917 8 5.71667 8 6V13L7.2 13.6C6.81667 13.8833 6.52083 14.2333 6.3125 14.65C6.10417 15.0667 6 15.5167 6 16Z" fill="#FF5C00"/>
</g>
</svg>
