<svg width="24" height="24" viewBox="0 0 24 24" fill="none" xmlns="http://www.w3.org/2000/svg">
<mask id="mask0_4768_833" style="mask-type:alpha" maskUnits="userSpaceOnUse" x="0" y="0" width="24" height="24">
<rect width="24" height="24" fill="#D9D9D9"/>
</mask>
<g mask="url(#mask0_4768_833)">
<path fill-rule="evenodd" clip-rule="evenodd" d="M19.7955 18.9998L16.9744 6.77508C16.9148 6.51666 16.7549 6.29252 16.53 6.15195L13 3.94573V2H11V3.94573L7.47 6.15195C7.2451 6.29252 7.08525 6.51666 7.02561 6.77508L4.20449 18.9998H2V20.9998H4.97988C4.99392 21.0001 5.00792 21.0001 5.02188 20.9998H18.9781C18.9921 21.0001 19.0061 21.0001 19.0201 20.9998H22V18.9998H19.7955ZM13 18.2927L16.7211 14.5717L16.4237 13.2832L13 16.7069V18.2927ZM13.7071 18.9998H17.7429L16.9862 15.7207L13.7071 18.9998ZM13 13.707V15.2927L16.1586 12.1342L15.8612 10.8458L13 13.707ZM15.5961 9.69674L13 12.2928V10.707L15.2987 8.4083L15.5961 9.69674ZM14.8392 7.45366L13 9.29281V6.3042L14.8392 7.45366ZM6.25705 18.9998H11L11 6.3042L8.88125 7.6284L6.25705 18.9998Z" fill="white"/>
</g>
</svg>
