<svg width="24" height="24" viewBox="0 0 24 24" fill="none" xmlns="http://www.w3.org/2000/svg">
<path d="M12 0C5.36727 0 0 5.36727 0 12C0 18.6327 5.36727 24 12 24C18.6327 24 24 18.6327 24 12C24 5.36727 18.6327 0 12 0ZM12 22.9091C5.98909 22.9091 1.09091 18.0109 1.09091 12C1.09091 5.98909 5.98909 1.09091 12 1.09091C18.0109 1.09091 22.9091 5.98909 22.9091 12C22.9091 18.0109 18.0109 22.9091 12 22.9091Z" fill="#fff"/>
<path d="M12.2073 18.3055H12.8073L12.8945 17.7819H12.12L12.2073 18.3055Z" fill="#fff"/>
<path d="M6.62183 19.7019H7.0691L7.52728 19.1891L7.15637 18.731L6.62183 19.7019Z" fill="#fff"/>
<path d="M8.0073 6.74184L7.59275 6.56729V7.01457L8.0073 7.28729V6.74184Z" fill="#fff"/>
<path d="M17.16 10.2654L16.6146 8.35634L13.7018 3.52362L13.4727 3.7418L13.3855 4.38543L12.84 4.59271H10.1237L8.9782 5.87998H8.64002V6.6218H8.19275V7.14543L8.96729 8.55271V9.5018L9.37093 9.91634H8.90184L8.59639 9.61089L7.11275 9.99271V10.6582L8.10548 10.9527L8.23639 12.8509L8.70548 13.4182V14.1927H8.38911L7.8982 14.9127V15.3273L7.35275 16.3527L7.66911 16.8327V17.8909L7.22184 18.2291L7.82184 19.1127V19.8873H8.65093L9.98184 18.3382H10.1564V18.9273L10.5055 19.2654L10.92 18.7309L10.6037 18.2618V18.0109L11.0727 17.6836L11.3018 18.2291V18.5563L11.8255 18.0873V17.7491L11.5855 17.52L12.7855 16.92V17.4545H13.5927L13.8764 17.7382L14.5418 16.6363L15.7746 16.9745L16.9527 15.7309L17.5309 13.2654L16.9527 12.9818L17.16 10.2654Z" fill="#fff"/>
<path d="M7.71271 11.1928L7.41817 11.0946L7.50544 11.651L7.71271 11.8691V11.1928Z" fill="#fff"/>
<path d="M14.1709 17.7164L14.5745 18.3709L14.8909 17.3346H14.6073L14.1709 17.7164Z" fill="#fff"/>
</svg>
