<svg width="24" height="24" viewBox="0 0 24 24" fill="none" xmlns="http://www.w3.org/2000/svg">
<mask id="mask0_4809_2584" style="mask-type:alpha" maskUnits="userSpaceOnUse" x="0" y="0" width="24" height="24">
<rect width="24" height="24" fill="#D9D9D9"/>
</mask>
<g mask="url(#mask0_4809_2584)">
<path d="M11.1 12.8977H3C3 8.22899 6.5523 4.39031 11.1009 3.94018L11.1 3.89517C11.1007 3.77548 11.1252 3.65713 11.1722 3.54704C11.2191 3.43695 11.2875 3.33732 11.3734 3.254C11.4593 3.17067 11.561 3.10531 11.6724 3.06175C11.7839 3.01819 11.9029 2.99729 12.0225 3.00028C12.1421 3.00327 12.2599 3.0301 12.3691 3.07918C12.4782 3.12826 12.5764 3.19862 12.6581 3.28614C12.7397 3.37366 12.8031 3.47658 12.8444 3.58888C12.8858 3.70118 12.9044 3.82061 12.8991 3.94018C17.4477 4.39031 21 8.22809 21 12.8977H12.9V18.2992C12.9 18.538 12.9948 18.767 13.1636 18.9358C13.3324 19.1046 13.5613 19.1995 13.8 19.1995C14.0387 19.1995 14.2676 19.1046 14.4364 18.9358C14.6052 18.767 14.7 18.538 14.7 18.2992C14.7 18.0605 14.7948 17.8315 14.9636 17.6627C15.1324 17.4938 15.3613 17.399 15.6 17.399C15.8387 17.399 16.0676 17.4938 16.2364 17.6627C16.4052 17.8315 16.5 18.0605 16.5 18.2992C16.5 19.0155 16.2155 19.7025 15.7092 20.209C15.2028 20.7155 14.5161 21 13.8 21C13.0839 21 12.3972 20.7155 11.8908 20.209C11.3845 19.7025 11.1 19.0155 11.1 18.2992V12.8977Z" fill="#fff"/>
</g>
</svg>
