<svg width="24" height="24" viewBox="0 0 24 24" fill="none" xmlns="http://www.w3.org/2000/svg">
<path d="M23.8361 10.1018C23.8361 10.1018 23.8361 10.0582 23.8361 10.0255C22.8743 4.34182 17.9454 0 11.9781 0C10.1967 0 8.51366 0.392727 6.99454 1.09091H6.91803C6.91803 1.09091 6.8306 1.11273 6.79781 1.14545L6.71038 1.23273C6.0765 1.53818 5.48634 1.89818 4.92896 2.31273C4.02186 2.97818 3.21311 3.76364 2.51366 4.64727C2 5.31273 1.55191 6.03273 1.18033 6.79636C1.08197 7.01455 0.972678 7.22182 0.885246 7.44C0.710383 7.85455 0.568306 8.29091 0.448087 8.72727C0.448087 8.73818 0.448087 8.74909 0.448087 8.76C0.360656 9.08727 0.273224 9.41455 0.20765 9.75273C0.185792 9.85091 0.174863 9.94909 0.163934 10.0473C0.120219 10.3091 0.0765027 10.5709 0.0546448 10.8436C0.0218579 11.2255 0 11.6073 0 12C0 12.5018 0.0437158 12.9927 0.0983607 13.4836H0.0546448C0.415301 16.4073 1.83607 19.0036 3.91257 20.88C4.17486 21.12 4.45902 21.3491 4.74317 21.5673C6.7541 23.0836 9.25683 24 11.9781 24C18.623 24 24 18.6327 24 12C24 11.3455 23.9344 10.7236 23.8361 10.1018ZM1.48634 15.0436H1.9235C1.9235 15.0436 2.01093 15.0655 2.04372 15.0982C2.08743 15.1418 2.15301 15.2073 2.19672 15.2509C2.22951 15.2836 2.27322 15.3055 2.31694 15.3055H2.43716C2.43716 15.3055 2.52459 15.3273 2.55738 15.36C2.66667 15.4691 2.9071 15.7091 3.00546 15.8073C3.03825 15.84 3.08197 15.8618 3.12568 15.8618H3.33333C3.33333 15.8618 3.42077 15.8836 3.45355 15.9164C3.48634 15.9491 3.5082 15.9927 3.5082 16.0364V16.2436C3.5082 16.2436 3.48634 16.3309 3.45355 16.3636C3.39891 16.4182 3.28962 16.5273 3.23497 16.5818C3.20219 16.6145 3.18033 16.6582 3.18033 16.7018V17.2691C3.18033 17.2691 3.20219 17.3564 3.23497 17.3891C3.40984 17.5636 3.98907 18.1418 4.16393 18.3055C4.19672 18.3382 4.21858 18.3818 4.21858 18.4255V19.6909C2.95082 18.4145 2 16.8218 1.48634 15.0545V15.0436ZM11.9781 22.9091C9.42077 22.9091 7.06011 22.0145 5.20219 20.5418L7.1694 18.5782C7.1694 18.5782 7.22404 18.5018 7.22404 18.4582V17.9345C7.22404 17.9345 7.2459 17.8473 7.27869 17.8145C7.35519 17.7382 7.48634 17.6073 7.56284 17.5309C7.59563 17.4982 7.61749 17.4545 7.61749 17.4109V17.2691C7.61749 17.2691 7.59563 17.1818 7.56284 17.1491C7.48634 17.0727 7.35519 16.9418 7.27869 16.8655C7.2459 16.8327 7.20219 16.8109 7.15847 16.8109H6.60109C6.60109 16.8109 6.51366 16.7891 6.48087 16.7564L5.21311 15.4909C5.21311 15.4909 5.13661 15.4364 5.0929 15.4364H4.02186C4.02186 15.4364 3.93443 15.4582 3.90164 15.4909C3.89071 15.5018 3.86885 15.5236 3.85792 15.5345C3.82514 15.5673 3.78142 15.5891 3.73771 15.5891H3.3224C3.3224 15.5891 3.23497 15.5673 3.20219 15.5345C3.06011 15.3927 2.64481 14.9782 2.50273 14.8364C2.46995 14.8036 2.42623 14.7818 2.38251 14.7818H1.95628C1.95628 14.7818 1.86885 14.76 1.83607 14.7273C1.79235 14.6836 1.72678 14.6182 1.68306 14.5745C1.65027 14.5418 1.62842 14.4982 1.62842 14.4545V14.0073C1.62842 14.0073 1.65027 13.92 1.68306 13.8873L1.96721 13.6036C1.96721 13.6036 2.04372 13.5491 2.08743 13.5491H2.87432C2.87432 13.5491 2.96175 13.5709 2.99454 13.6036C3.02732 13.6364 3.04918 13.68 3.04918 13.7236V13.7782C3.04918 13.7782 3.04918 13.8 3.06011 13.8109C3.10383 13.8545 3.15847 13.8655 3.21311 13.8436C3.26776 13.8218 3.30055 13.7673 3.30055 13.7127V13.4727C3.30055 13.4727 3.3224 13.3855 3.35519 13.3527C3.42077 13.2873 3.55191 13.1564 3.61749 13.0909C3.65027 13.0582 3.67213 13.0145 3.67213 12.9709V12.7855C3.67213 12.7855 3.69399 12.6982 3.72678 12.6655C3.91257 12.48 4.56831 11.8255 4.7541 11.64C4.78689 11.6073 4.80874 11.5636 4.80874 11.52V11.2036C4.80874 11.1055 4.88525 11.0291 4.98361 11.0291H5.30055C5.30055 11.0291 5.38798 11.0073 5.42077 10.9745C5.46448 10.9309 5.53006 10.8655 5.57377 10.8218C5.60656 10.7891 5.62842 10.7455 5.62842 10.7018C5.62842 10.7018 5.61749 10.6255 5.5847 10.5927C5.5082 10.5164 5.34426 10.3418 5.25683 10.2655C5.22404 10.2327 5.20219 10.1891 5.20219 10.1455V9.80727C5.20219 9.80727 5.18033 9.72 5.14754 9.68727L4.96175 9.50182C4.96175 9.50182 4.88525 9.44727 4.84153 9.44727C4.79781 9.44727 4.7541 9.46909 4.72131 9.50182C4.68852 9.53455 4.64481 9.55636 4.60109 9.55636C4.55738 9.55636 4.51366 9.53455 4.48087 9.50182C4.3388 9.36 4.10929 9.13091 4 9.02182C3.96721 8.98909 3.9235 8.96727 3.87978 8.96727H3.5847C3.48634 8.96727 3.40984 9.04364 3.40984 9.14182V10.56C3.40984 10.56 3.38798 10.6473 3.35519 10.68C3.3224 10.7127 3.27869 10.7345 3.23497 10.7345H3.11475C3.11475 10.7345 3.02732 10.7127 2.99454 10.68C2.80874 10.4945 2.18579 9.87273 2.01093 9.69818C1.97814 9.66545 1.95628 9.62182 1.95628 9.57818V9.29455C1.95628 9.29455 1.97814 9.20727 2.01093 9.17455C2.14208 9.04364 2.48087 8.70545 2.61202 8.57455C2.64481 8.54182 2.66667 8.49818 2.66667 8.45455V7.86545C2.66667 7.86545 2.64481 7.77818 2.61202 7.74545L2.27322 7.40727C2.27322 7.40727 2.16393 7.36364 2.10929 7.37455C2.24044 7.10182 2.37158 6.82909 2.52459 6.57818C2.92896 6.98182 3.40984 7.46182 3.56284 7.61455C3.59563 7.64727 3.61749 7.69091 3.61749 7.73455V7.95273C3.61749 7.95273 3.63934 8.04 3.67213 8.07273C3.86885 8.26909 4.62295 9.02182 4.62295 9.02182C4.62295 9.02182 4.84153 8.80364 4.93989 8.70545C4.97268 8.67273 4.99454 8.62909 4.99454 8.58545V8.05091C4.99454 8.05091 4.97268 7.96364 4.93989 7.93091C4.86339 7.85455 4.74317 7.73455 4.66667 7.65818C4.63388 7.62545 4.61202 7.58182 4.61202 7.53818V7.15636C4.61202 7.15636 4.59016 7.06909 4.55738 7.03636C4.37158 6.85091 3.74863 6.22909 3.56284 6.04364C3.53005 6.01091 3.48634 5.98909 3.44262 5.98909H2.89618C3.04918 5.76 3.20219 5.55273 3.36612 5.33455C3.38798 5.33455 3.40984 5.35636 3.43169 5.34545C3.49727 5.32364 3.54098 5.25818 3.54098 5.19273V5.11636C3.79235 4.81091 4.05465 4.51636 4.32787 4.24364V4.68C4.32787 4.68 4.34973 4.76727 4.38251 4.8C4.62295 5.04 5.61749 6.03273 5.84699 6.26182C5.87978 6.29455 5.90164 6.33818 5.90164 6.38182V8.42182C5.90164 8.42182 5.9235 8.50909 5.95628 8.54182L6.61202 9.19636C6.61202 9.19636 6.73224 9.26182 6.79781 9.22909C6.86339 9.20727 6.9071 9.14182 6.9071 9.07636V8.78182C6.9071 8.78182 6.92896 8.69455 6.96175 8.66182C7.2459 8.37818 8.65574 6.97091 8.93989 6.68727C8.97268 6.65455 8.99454 6.61091 8.99454 6.56727V4.00364C8.99454 4.00364 9.01639 3.91636 9.04918 3.88364C9.1694 3.76364 9.48634 3.44727 9.60656 3.32727C9.63935 3.29455 9.6612 3.25091 9.6612 3.20727V2.52C9.6612 2.52 9.63935 2.43273 9.60656 2.4C9.57377 2.36727 9.53006 2.34545 9.48634 2.34545H9.02732C9.02732 2.34545 8.93989 2.32364 8.9071 2.29091C8.87432 2.25818 8.85246 2.21455 8.85246 2.17091V1.53818C9.86885 1.23273 10.9399 1.05818 12.0546 1.05818C15.3443 1.05818 18.2951 2.53091 20.306 4.83273C20.2732 4.83273 20.2404 4.84364 20.2186 4.87636C19.9891 5.10545 19.0164 6.07636 18.776 6.31636C18.7432 6.34909 18.6995 6.37091 18.6557 6.37091H17.6175C17.6175 6.37091 17.5301 6.39273 17.4973 6.42545L16.3825 7.53818C16.3825 7.53818 16.306 7.59273 16.2623 7.59273H14.6776C14.6776 7.59273 14.5902 7.57091 14.5574 7.53818C14.4372 7.41818 14.1311 7.11273 14.0109 6.99273C13.9781 6.96 13.9344 6.93818 13.8907 6.93818H13.388C13.388 6.93818 13.3005 6.96 13.2678 6.99273L11.6284 8.62909C11.6284 8.62909 11.5738 8.70546 11.5738 8.74909V9.36C11.5738 9.36 11.5956 9.44727 11.6284 9.48C11.7486 9.6 12.0546 9.90545 12.2295 10.08C12.2951 10.1455 12.4044 10.1455 12.4699 10.08C12.5683 9.98182 12.6885 9.86182 12.765 9.78545C12.7978 9.75273 12.8197 9.70909 12.8197 9.66545V8.88C12.8197 8.88 12.8415 8.79273 12.8743 8.76C12.9727 8.66182 13.2022 8.43273 13.2568 8.37818C13.2568 8.37818 13.2787 8.36727 13.2896 8.36727C13.3333 8.36727 13.3661 8.38909 13.377 8.43273C13.388 8.46546 13.3771 8.50909 13.3552 8.54182C13.2787 8.61818 13.1913 8.70545 13.1475 8.76C13.1148 8.79273 13.0929 8.83636 13.0929 8.88V9.08727C13.0929 9.08727 13.1148 9.17455 13.1475 9.20727C13.1803 9.24 13.224 9.28364 13.2568 9.31636C13.2896 9.34909 13.3115 9.39273 13.3115 9.43636V9.96C13.3115 9.96 13.2896 10.0473 13.2568 10.08C13.1585 10.1782 12.9617 10.3745 12.8743 10.4618C12.8415 10.4945 12.7978 10.5164 12.7541 10.5164H11.7705C11.7705 10.5164 11.6831 10.5382 11.6503 10.5709C11.5082 10.7127 11.0929 11.1273 10.9508 11.2691C10.918 11.3018 10.8962 11.3455 10.8962 11.3891V11.8255C10.8962 11.8255 10.8743 11.9127 10.8415 11.9455C10.8087 11.9782 10.765 12 10.7213 12H10.3825C10.3825 12 10.2951 12.0218 10.2623 12.0545C10.2295 12.0873 10.2077 12.1309 10.2077 12.1745V12.6327C10.2077 12.6327 10.2295 12.72 10.2623 12.7527C10.2951 12.7855 10.3388 12.8073 10.3825 12.8073H10.765C10.765 12.8073 10.8525 12.7855 10.8852 12.7527C11.0383 12.6 11.4863 12.1527 11.6393 12C11.6721 11.9673 11.7158 11.9455 11.7596 11.9455H11.9454C11.9454 11.9455 12.0328 11.9673 12.0656 12L12.459 12.3927C12.459 12.3927 12.5355 12.4364 12.5792 12.4145C12.623 12.3927 12.6448 12.36 12.6448 12.3164V12.2945C12.6011 12.2509 12.3388 11.9891 12.2732 11.9236C12.2732 11.9236 12.2623 11.9018 12.2623 11.8909C12.2623 11.8473 12.2842 11.8036 12.3279 11.7927C12.3716 11.7818 12.4153 11.7927 12.4481 11.8145C12.612 11.9782 12.8415 12.2073 12.9399 12.3055C12.9727 12.3382 12.9945 12.3818 12.9945 12.4255V12.8073C13.0383 12.7636 13.8798 11.9236 14.0984 11.7055C14.1311 11.6727 14.1749 11.6509 14.2186 11.6509H14.5027C14.5027 11.6509 14.5902 11.6727 14.623 11.7055C14.7104 11.7927 14.9071 11.9891 14.9836 12.0655C15.0055 12.0873 15.0164 12.12 15.0164 12.1527C15.0164 12.1964 15.0055 12.2291 14.9727 12.2618C14.9399 12.2945 14.9071 12.3055 14.8634 12.3055H13.9563C13.9563 12.3055 13.8689 12.3273 13.8361 12.36C13.7486 12.4473 13.5738 12.6218 13.5628 12.6327C13.5628 12.6327 13.7486 12.8182 13.8361 12.9055C13.8689 12.9382 13.9126 12.96 13.9563 12.96H14.2623C14.3607 12.96 14.4372 13.0364 14.4372 13.1345V13.3418C14.4372 13.44 14.3607 13.5164 14.2623 13.5164H12.6667C12.6667 13.5164 12.5792 13.4945 12.5464 13.4618C12.459 13.3745 12.2623 13.1782 12.1749 13.0909C12.1421 13.0582 12.0984 13.0364 12.0546 13.0364H10.765C10.765 13.0364 10.6776 13.0582 10.6448 13.0909C10.4481 13.2873 9.70492 14.0291 9.49727 14.2364C9.46448 14.2691 9.44262 14.3127 9.44262 14.3564V15.2836C9.44262 15.2836 9.46448 15.3709 9.49727 15.4036C9.62842 15.5345 10.0109 15.9164 10.1421 16.0473C10.1749 16.08 10.2186 16.1018 10.2623 16.1018H11.8251C11.8251 16.1018 11.9126 16.1236 11.9454 16.1564C11.9781 16.1891 12 16.2327 12 16.2764V18.0327C12 18.0327 12.0219 18.12 12.0546 18.1527C12.1311 18.2291 12.2732 18.3709 12.3497 18.4473C12.3825 18.48 12.4044 18.5236 12.4044 18.5673V19.5491C12.4044 19.5491 12.4262 19.6364 12.459 19.6691L12.7541 19.9636C12.7541 19.9636 12.8306 20.0182 12.8743 20.0182H13.4645C13.4645 20.0182 13.5519 19.9964 13.5847 19.9636L14.3934 19.1564C14.3934 19.1564 14.4481 19.08 14.4481 19.0364V18.5564C14.4481 18.5564 14.4699 18.4691 14.5027 18.4364L14.9508 17.9891C14.9508 17.9891 15.0055 17.9127 15.0055 17.8691V16.9091C15.0055 16.9091 15.0273 16.8218 15.0601 16.7891L15.9126 15.9382C15.9126 15.9382 15.9672 15.8618 15.9672 15.8182V15.4473C15.9672 15.4473 15.9454 15.36 15.9126 15.3273C15.8798 15.2945 15.8361 15.2727 15.7923 15.2727H15.235C15.235 15.2727 15.1475 15.2509 15.1148 15.2182C15.0055 15.1091 14.7541 14.8582 14.6448 14.7491C14.612 14.7164 14.5902 14.6727 14.5902 14.6291V14.4327C14.5902 14.4327 14.5683 14.3455 14.5355 14.3127C14.4918 14.2691 14.4153 14.1927 14.3607 14.1382C14.3279 14.1055 14.306 14.0618 14.306 14.0182C14.306 13.9745 14.3279 13.9309 14.3607 13.8982C14.4153 13.8436 14.459 13.8 14.459 13.8C14.459 13.8 14.776 14.1164 14.8962 14.2364C14.929 14.2691 14.9508 14.3127 14.9508 14.3564V14.64C14.9508 14.64 14.9727 14.7273 15.0055 14.76C15.082 14.8364 15.235 14.9891 15.3115 15.0655C15.3443 15.0982 15.388 15.12 15.4317 15.12H15.9781C15.9781 15.12 16.0656 15.0982 16.0984 15.0655C16.2186 14.9455 16.5027 14.6618 16.6776 14.4873C16.7432 14.4218 16.7432 14.3127 16.6776 14.2473C16.6776 14.2473 16.6776 14.2473 16.6667 14.2364C16.6339 14.2036 16.5902 14.1818 16.5464 14.1818H16.1093C16.1093 14.1818 16.0219 14.16 15.9891 14.1273C15.9563 14.0945 15.9126 14.0509 15.8689 14.0073C15.8251 13.9636 15.8142 13.9091 15.8361 13.8545C15.8579 13.8 15.9016 13.7673 15.9672 13.7673H15.9891C16.0109 13.7891 16.0874 13.8655 16.1421 13.92C16.1749 13.9527 16.2186 13.9745 16.2623 13.9745H16.5683C16.5683 13.9745 16.6557 13.9964 16.6885 14.0291C16.6885 14.0291 16.6995 14.04 16.7104 14.0509C16.7432 14.0836 16.7869 14.1055 16.8306 14.1055H17.388C17.388 14.1055 17.4754 14.1273 17.5082 14.16L18.1093 14.76C18.1093 14.76 18.1639 14.8364 18.1639 14.88V15.0982C18.1639 15.0982 18.1858 15.1855 18.2186 15.2182C18.2186 15.2182 18.2404 15.24 18.2514 15.24C18.2842 15.2727 18.306 15.3164 18.306 15.36V15.4364C18.306 15.4364 18.3279 15.5236 18.3607 15.5564C18.3825 15.5782 18.4153 15.6109 18.4481 15.6436C18.5137 15.7091 18.6229 15.7091 18.6885 15.6436C18.7213 15.6109 18.7432 15.5891 18.776 15.5564C18.8087 15.5236 18.8306 15.48 18.8306 15.4364V15.1636C18.8306 15.1636 18.8525 15.0764 18.8852 15.0436C19.0055 14.9236 19.3005 14.6291 19.4208 14.5091C19.4536 14.4764 19.4973 14.4545 19.541 14.4545H19.8142C19.8142 14.4545 19.9016 14.4764 19.9344 14.5091C20.1202 14.6945 20.7869 15.36 21.071 15.6436C21.1038 15.6764 21.1475 15.6982 21.1913 15.6982C21.235 15.6982 21.2787 15.6764 21.3115 15.6436C21.377 15.5782 21.4645 15.4909 21.541 15.4145C21.5738 15.3818 21.5956 15.3382 21.5956 15.2945C21.5956 15.2509 21.5738 15.2073 21.541 15.1745C21.4754 15.1091 21.3989 15.0327 21.3333 14.9673C21.3005 14.9345 21.2787 14.8909 21.2787 14.8473C21.2787 14.8036 21.3005 14.76 21.3333 14.7273L21.6175 14.4436C21.6175 14.4436 21.694 14.3891 21.7377 14.3891H22.153C22.153 14.3891 22.2404 14.3673 22.2732 14.3345L22.6448 13.9636C22.6448 13.9636 22.6995 13.8873 22.6995 13.8436V12.6436C22.6995 12.5455 22.776 12.4691 22.8743 12.4691H22.9727C22.9727 12.4691 23.0601 12.4909 23.0929 12.5127C23.0601 13.2982 22.9399 14.0618 22.7432 14.7927H22.7104C22.7104 14.7927 22.6448 14.8255 22.6448 14.8582V15.1418C22.6448 15.1418 22.6448 15.1527 22.6448 15.1636C22.5683 15.4255 22.4699 15.6764 22.3716 15.9273C22.3716 15.9273 22.3716 15.9273 22.3497 15.9273C22.3279 15.9273 22.3169 15.9273 22.306 15.9491C22.1967 16.0582 21.9344 16.32 21.8579 16.3964C21.847 16.4073 21.8251 16.4182 21.8142 16.4182H21.6721C21.6721 16.4182 21.6393 16.4182 21.6284 16.44C21.6175 16.4618 21.6066 16.4727 21.6066 16.4836V16.6255C21.6066 16.6255 21.6066 16.6582 21.6284 16.6691C21.6721 16.7127 21.7923 16.8327 21.847 16.8873C21.8579 16.8982 21.8798 16.9091 21.8907 16.9091H21.9454C20.1421 20.4545 16.459 22.8982 12.2077 22.8982L11.9781 22.9091ZM15.6284 12.2509C15.6284 12.2509 15.5191 12.1418 15.4754 12.0982C15.4426 12.0655 15.4208 12.0218 15.4208 11.9782V11.9127C15.4208 11.9127 15.4426 11.8255 15.4754 11.7927C15.5301 11.7382 15.6284 11.64 15.6831 11.5855C15.7158 11.5527 15.7596 11.5309 15.8033 11.5309H15.8579C15.8579 11.5309 15.9344 11.5418 15.9672 11.5745C16 11.6073 16.0109 11.64 16.0109 11.6836V11.7055C16.0109 11.7055 16.0109 11.7273 16 11.7382L15.9126 11.8255C15.847 11.8909 15.847 12 15.9126 12.0655C15.9563 12.1091 16.0109 12.1636 16.0437 12.1964C16.0765 12.2291 16.0984 12.2727 16.0984 12.3164V12.6873C16.0984 12.6873 16.0765 12.7745 16.0546 12.7964C16.0219 12.8291 15.9891 12.84 15.9454 12.84H15.9126C15.9126 12.84 15.8798 12.84 15.8689 12.8182L15.7377 12.6873C15.7377 12.6873 15.6831 12.6109 15.6831 12.5673V12.36C15.6831 12.36 15.6612 12.2727 15.6284 12.24V12.2509Z" fill="#5B6187"/>
<path d="M10.5465 10.32C10.5465 10.32 10.6011 10.3964 10.6011 10.44V10.6364C10.6011 10.6364 10.5793 10.7237 10.5465 10.7564C10.5137 10.7891 10.4809 10.8218 10.47 10.8328C10.47 10.8328 10.47 10.8328 10.47 10.8437C10.47 10.9091 10.5028 10.9528 10.5465 10.9746C10.5902 10.9964 10.6448 10.9746 10.6776 10.9528C10.6885 10.9418 10.6995 10.9309 10.7213 10.9309H10.8853C10.8853 10.9309 10.9727 10.9091 11.0055 10.8764C11.0383 10.8437 11.0601 10.8 11.0601 10.7564V10.6691C11.0601 10.6691 11.0383 10.5818 11.0055 10.5491C10.9618 10.5055 10.9071 10.4509 10.8634 10.4073C10.8306 10.3746 10.8088 10.3309 10.8088 10.2873V10.0473C10.8088 9.94912 10.7323 9.87276 10.6339 9.87276H10.6011V9.8073C10.6011 9.8073 10.5574 9.70912 10.5028 9.70912C10.4372 9.70912 10.3935 9.76366 10.3935 9.81821V10.08C10.3935 10.08 10.4153 10.1673 10.4481 10.2C10.4809 10.2328 10.5246 10.2764 10.5574 10.3091L10.5465 10.32Z" fill="#5B6187"/>
<path d="M10.0977 10.8763C10.0977 10.8763 10.1741 10.8654 10.1959 10.8327L10.305 10.7236C10.305 10.7236 10.3595 10.6472 10.3595 10.6036V10.4509C10.3595 10.4509 10.3486 10.3745 10.3159 10.3527C10.2941 10.3309 10.2505 10.309 10.2177 10.309H10.1741C10.1523 10.3309 10.0868 10.3963 10.0432 10.4399C10.0105 10.4727 9.98864 10.5163 9.98864 10.5599V10.789C9.98864 10.789 9.98864 10.8218 9.99955 10.8218C10.0214 10.8436 10.065 10.8654 10.0977 10.8654V10.8763Z" fill="#5B6187"/>
<path d="M21.0383 16.8327L20.328 16.1236C20.328 16.1236 20.2952 16.1018 20.2842 16.1018H20.1749C20.1749 16.1018 20.1203 16.1236 20.1094 16.1455C20.1094 16.1673 20.1094 16.2 20.1203 16.2218C20.2624 16.3636 20.481 16.5818 20.5465 16.6473C20.5575 16.6582 20.5684 16.68 20.5684 16.6909V16.8C20.5684 16.8 20.5684 16.8327 20.5902 16.8436L20.8307 17.0836C20.8307 17.0836 20.8635 17.1055 20.8744 17.1055H20.9728C20.9728 17.1055 21.0056 17.1055 21.0165 17.0836C21.0274 17.0618 21.0383 17.0509 21.0383 17.04C21.0383 16.9855 21.0383 16.9091 21.0383 16.8655C21.0383 16.8436 21.0383 16.8327 21.0165 16.8218L21.0383 16.8327Z" fill="#5B6187"/>
<path d="M15.5841 17.9891C15.5187 17.9673 15.4423 17.9782 15.3987 18.0218C15.3114 18.1091 15.2241 18.1963 15.1696 18.2509C15.1369 18.2836 15.1151 18.3273 15.1151 18.3709V18.8945C15.1151 18.8945 15.1151 18.9382 15.1369 18.9491L15.1587 18.9709C15.1914 19.0036 15.2351 19.0254 15.2787 19.0254C15.3223 19.0254 15.366 19.0036 15.3987 18.9709C15.4314 18.9382 15.4641 18.9054 15.486 18.8836C15.5187 18.8509 15.5405 18.8073 15.5405 18.7636V18.6654C15.5405 18.6654 15.5623 18.5782 15.5951 18.5454C15.606 18.5345 15.6278 18.5127 15.6387 18.5018C15.6714 18.4691 15.6932 18.4254 15.6932 18.3818V18.1418C15.6932 18.0763 15.6496 18.0109 15.5841 17.9891Z" fill="#5B6187"/>
</svg>
