<svg width="24" height="24" viewBox="0 0 24 24" fill="none" xmlns="http://www.w3.org/2000/svg">
<path d="M16.353 8.56368C16.353 8.56368 16.353 8.47641 16.3421 8.43278C16.3421 8.38914 16.3421 8.3455 16.3203 8.30187C16.3203 8.26914 16.3203 8.23641 16.3093 8.21459C16.3093 8.16005 16.2875 8.1055 16.2766 8.06187C16.2766 8.04005 16.2766 8.02914 16.2766 8.00732C16.0803 7.10187 15.6112 6.29459 14.9457 5.68368C14.9457 5.68368 14.9348 5.68368 14.9239 5.67278C14.8803 5.62914 14.8366 5.59641 14.7821 5.55278C14.7712 5.55278 14.7603 5.53096 14.7384 5.52005C13.9857 4.90914 13.0366 4.54914 11.9893 4.54914C10.9421 4.54914 9.99298 4.92005 9.24026 5.52005C9.22935 5.52005 9.21844 5.54187 9.19662 5.55278C9.15298 5.59641 9.09844 5.62914 9.0548 5.67278C9.0548 5.67278 9.04389 5.67278 9.03298 5.68368C8.36753 6.28368 7.89844 7.09096 7.70207 8.00732C7.70207 8.02914 7.70207 8.04005 7.70207 8.06187C7.70207 8.11641 7.68026 8.17096 7.66935 8.21459C7.66935 8.24732 7.66935 8.28005 7.65844 8.30187C7.65844 8.3455 7.64753 8.38914 7.63662 8.43278C7.63662 8.47641 7.63662 8.52005 7.62571 8.56368C7.62571 8.59641 7.62571 8.62914 7.62571 8.66187C7.62571 8.73823 7.62571 8.8255 7.62571 8.90187C7.62571 8.97823 7.62571 9.0655 7.62571 9.14187C7.62571 9.17459 7.62571 9.20732 7.62571 9.24005C7.62571 9.28368 7.62571 9.32732 7.63662 9.37096C7.63662 9.41459 7.63662 9.45823 7.65844 9.50187C7.65844 9.53459 7.65844 9.56732 7.66935 9.58914C7.66935 9.64368 7.69116 9.69823 7.70207 9.74187C7.70207 9.76369 7.70207 9.77459 7.70207 9.79641C7.89844 10.7019 8.36753 11.5091 9.03298 12.12C9.03298 12.12 9.03298 12.12 9.04389 12.131C9.08753 12.1746 9.14207 12.2182 9.18571 12.251C9.19662 12.251 9.20753 12.2728 9.21844 12.2837C9.97116 12.8946 10.9312 13.2655 11.9675 13.2655C13.0039 13.2655 13.9639 12.8946 14.7166 12.2837C14.7275 12.2837 14.7384 12.2619 14.7493 12.251C14.793 12.2073 14.8475 12.1746 14.8912 12.131C14.8912 12.131 14.8912 12.131 14.9021 12.12C15.5675 11.52 16.0366 10.7128 16.233 9.79641C16.233 9.77459 16.233 9.76369 16.233 9.74187C16.233 9.68732 16.2548 9.63278 16.2657 9.58914C16.2657 9.55641 16.2657 9.52368 16.2766 9.50187C16.2766 9.45823 16.2875 9.41459 16.2984 9.37096C16.2984 9.32732 16.2984 9.28368 16.3093 9.24005C16.3093 9.20732 16.3093 9.17459 16.3093 9.14187C16.3093 9.0655 16.3093 8.97823 16.3093 8.90187C16.3093 8.8255 16.3093 8.73823 16.3093 8.66187C16.3093 8.62914 16.3093 8.59641 16.3093 8.56368H16.353ZM12.0003 12.0982C10.233 12.0982 8.80389 10.6582 8.80389 8.90187C8.80389 7.1455 10.2439 5.7055 12.0003 5.7055C13.7566 5.7055 15.1966 7.1455 15.1966 8.90187C15.1966 10.6582 13.7566 12.0982 12.0003 12.0982Z" fill="#fff"/>
<path d="M12 0C5.36727 0 0 5.36727 0 12C0 15.7309 1.70182 19.0582 4.36364 21.2618C6.43636 22.9745 9.09818 24 12 24C14.9018 24 17.5636 22.9745 19.6364 21.2618C22.2982 19.0582 24 15.7309 24 12C24 5.36727 18.6327 0 12 0ZM13.6364 18.96H10.3636V16.5055C10.3636 16.3527 10.4836 16.2327 10.6364 16.2327H13.3636C13.5164 16.2327 13.6364 16.3527 13.6364 16.5055V18.96ZM19.6364 19.7782V18.96H18V14.8691C18 14.7164 17.88 14.5964 17.7273 14.5964H6.27273C6.12 14.5964 6 14.7164 6 14.8691V18.96H4.36364V19.7782C2.34545 17.7927 1.09091 15.0436 1.09091 12C1.09091 5.98909 5.98909 1.09091 12 1.09091C18.0109 1.09091 22.9091 5.98909 22.9091 12C22.9091 15.0436 21.6545 17.7927 19.6364 19.7782Z" fill="#fff"/>
<path d="M12.0006 9.65452C12.4163 9.65452 12.7533 9.31751 12.7533 8.90179C12.7533 8.48607 12.4163 8.14906 12.0006 8.14906C11.5849 8.14906 11.2479 8.48607 11.2479 8.90179C11.2479 9.31751 11.5849 9.65452 12.0006 9.65452Z" fill="#fff"/>
</svg>
