<svg width="25" height="24" viewBox="0 0 25 24" fill="none" xmlns="http://www.w3.org/2000/svg">
<mask id="mask0_4757_173" style="mask-type:alpha" maskUnits="userSpaceOnUse" x="0" y="0" width="25" height="24">
<rect x="0.464355" width="24" height="24" fill="#D9D9D9"/>
</mask>
<g mask="url(#mask0_4757_173)">
<path d="M10.2894 20.7001C8.57269 20.2167 7.17269 19.2709 6.08936 17.8625C5.00602 16.4542 4.46436 14.8334 4.46436 13C4.46436 12.05 4.62269 11.1459 4.93936 10.2875C5.25602 9.42922 5.70602 8.64172 6.28936 7.92505C6.47269 7.72505 6.69769 7.62088 6.96436 7.61255C7.23102 7.60422 7.47269 7.70838 7.68936 7.92505C7.87269 8.10838 7.96852 8.33338 7.97686 8.60005C7.98519 8.86672 7.89769 9.11672 7.71436 9.35005C7.31436 9.86672 7.00602 10.4334 6.78936 11.05C6.57269 11.6667 6.46436 12.3167 6.46436 13C6.46436 14.35 6.86019 15.5542 7.65186 16.6125C8.44352 17.6709 9.46436 18.3917 10.7144 18.7751C10.931 18.8417 11.1102 18.9667 11.2519 19.1501C11.3935 19.3334 11.4644 19.5334 11.4644 19.75C11.4644 20.0834 11.3477 20.3459 11.1144 20.5375C10.881 20.7292 10.606 20.7834 10.2894 20.7001ZM14.6394 20.7001C14.3227 20.7834 14.0477 20.7251 13.8144 20.5251C13.581 20.3251 13.4644 20.0584 13.4644 19.725C13.4644 19.525 13.5352 19.3334 13.6769 19.1501C13.8185 18.9667 13.9977 18.8417 14.2144 18.7751C15.4644 18.3751 16.4852 17.6501 17.2769 16.6C18.0685 15.55 18.4644 14.35 18.4644 13C18.4644 11.3334 17.881 9.91672 16.7144 8.75005C15.5477 7.58338 14.131 7.00005 12.4644 7.00005H12.3894L12.7894 7.40005C12.9727 7.58338 13.0644 7.81672 13.0644 8.10005C13.0644 8.38338 12.9727 8.61672 12.7894 8.80005C12.606 8.98338 12.3727 9.07505 12.0894 9.07505C11.806 9.07505 11.5727 8.98338 11.3894 8.80005L9.28936 6.70005C9.18936 6.60005 9.11852 6.49172 9.07686 6.37505C9.03519 6.25838 9.01436 6.13338 9.01436 6.00005C9.01436 5.86672 9.03519 5.74172 9.07686 5.62505C9.11852 5.50838 9.18936 5.40005 9.28936 5.30005L11.3894 3.20005C11.5727 3.01672 11.806 2.92505 12.0894 2.92505C12.3727 2.92505 12.606 3.01672 12.7894 3.20005C12.9727 3.38338 13.0644 3.61672 13.0644 3.90005C13.0644 4.18338 12.9727 4.41672 12.7894 4.60005L12.3894 5.00005H12.4644C14.6977 5.00005 16.5894 5.77505 18.1394 7.32505C19.6894 8.87505 20.4644 10.7667 20.4644 13C20.4644 14.8167 19.9227 16.4334 18.8394 17.85C17.756 19.2667 16.356 20.2167 14.6394 20.7001Z" fill="#7386B6"/>
</g>
</svg>
