<svg width="24" height="24" viewBox="0 0 24 24" fill="none" xmlns="http://www.w3.org/2000/svg">
<mask id="mask0_4745_602" style="mask-type:alpha" maskUnits="userSpaceOnUse" x="0" y="0" width="24" height="24">
<rect width="24" height="24" fill="#D9D9D9"/>
</mask>
<g mask="url(#mask0_4745_602)">
<path d="M4 13.75H2C1.71667 13.75 1.47917 13.6542 1.2875 13.4625C1.09583 13.2708 1 13.0333 1 12.75C1 12.4667 1.09583 12.2292 1.2875 12.0375C1.47917 11.8458 1.71667 11.75 2 11.75H4C4.28333 11.75 4.52083 11.8458 4.7125 12.0375C4.90417 12.2292 5 12.4667 5 12.75C5 13.0333 4.90417 13.2708 4.7125 13.4625C4.52083 13.6542 4.28333 13.75 4 13.75ZM7.05 7.8C6.86667 7.98333 6.63333 8.075 6.35 8.075C6.06667 8.075 5.83333 7.98333 5.65 7.8L4.225 6.375C4.025 6.175 3.925 5.94167 3.925 5.675C3.925 5.40833 4.025 5.175 4.225 4.975C4.425 4.79167 4.65833 4.69583 4.925 4.6875C5.19167 4.67917 5.425 4.775 5.625 4.975L7.05 6.4C7.23333 6.58333 7.32917 6.8125 7.3375 7.0875C7.34583 7.3625 7.25 7.6 7.05 7.8ZM6 19C5.65 19 5.35417 18.8792 5.1125 18.6375C4.87083 18.3958 4.75 18.1 4.75 17.75C4.75 17.4 4.87083 17.1042 5.1125 16.8625C5.35417 16.6208 5.65 16.5 6 16.5C6.35 16.5 6.64583 16.6208 6.8875 16.8625C7.12917 17.1042 7.25 17.4 7.25 17.75C7.25 18.1 7.12917 18.3958 6.8875 18.6375C6.64583 18.8792 6.35 19 6 19ZM8 13.75C7.71667 13.75 7.47917 13.6542 7.2875 13.4625C7.09583 13.2708 7 13.0333 7 12.75C7 11.3667 7.4875 10.1875 8.4625 9.2125C9.4375 8.2375 10.6167 7.75 12 7.75C13.3833 7.75 14.5625 8.2375 15.5375 9.2125C16.5125 10.1875 17 11.3667 17 12.75C17 13.0333 16.9042 13.2708 16.7125 13.4625C16.5208 13.6542 16.2833 13.75 16 13.75H8ZM9 23C8.65 23 8.35417 22.8792 8.1125 22.6375C7.87083 22.3958 7.75 22.1 7.75 21.75C7.75 21.4 7.87083 21.1042 8.1125 20.8625C8.35417 20.6208 8.65 20.5 9 20.5C9.35 20.5 9.64583 20.6208 9.8875 20.8625C10.1292 21.1042 10.25 21.4 10.25 21.75C10.25 22.1 10.1292 22.3958 9.8875 22.6375C9.64583 22.8792 9.35 23 9 23ZM12 19C11.65 19 11.3542 18.8792 11.1125 18.6375C10.8708 18.3958 10.75 18.1 10.75 17.75C10.75 17.4 10.8708 17.1042 11.1125 16.8625C11.3542 16.6208 11.65 16.5 12 16.5C12.35 16.5 12.6458 16.6208 12.8875 16.8625C13.1292 17.1042 13.25 17.4 13.25 17.75C13.25 18.1 13.1292 18.3958 12.8875 18.6375C12.6458 18.8792 12.35 19 12 19ZM12 5.75C11.7167 5.75 11.4792 5.65417 11.2875 5.4625C11.0958 5.27083 11 5.03333 11 4.75V2.75C11 2.46667 11.0958 2.22917 11.2875 2.0375C11.4792 1.84583 11.7167 1.75 12 1.75C12.2833 1.75 12.5208 1.84583 12.7125 2.0375C12.9042 2.22917 13 2.46667 13 2.75V4.75C13 5.03333 12.9042 5.27083 12.7125 5.4625C12.5208 5.65417 12.2833 5.75 12 5.75ZM15 23C14.65 23 14.3542 22.8792 14.1125 22.6375C13.8708 22.3958 13.75 22.1 13.75 21.75C13.75 21.4 13.8708 21.1042 14.1125 20.8625C14.3542 20.6208 14.65 20.5 15 20.5C15.35 20.5 15.6458 20.6208 15.8875 20.8625C16.1292 21.1042 16.25 21.4 16.25 21.75C16.25 22.1 16.1292 22.3958 15.8875 22.6375C15.6458 22.8792 15.35 23 15 23ZM16.95 7.8C16.75 7.6 16.65 7.36667 16.65 7.1C16.65 6.83333 16.75 6.6 16.95 6.4L18.375 4.975C18.5583 4.79167 18.7875 4.69583 19.0625 4.6875C19.3375 4.67917 19.575 4.775 19.775 4.975C19.9583 5.15833 20.05 5.39167 20.05 5.675C20.05 5.95833 19.9583 6.19167 19.775 6.375L18.35 7.8C18.1667 7.98333 17.9375 8.075 17.6625 8.075C17.3875 8.075 17.15 7.98333 16.95 7.8ZM18 19C17.65 19 17.3542 18.8792 17.1125 18.6375C16.8708 18.3958 16.75 18.1 16.75 17.75C16.75 17.4 16.8708 17.1042 17.1125 16.8625C17.3542 16.6208 17.65 16.5 18 16.5C18.35 16.5 18.6458 16.6208 18.8875 16.8625C19.1292 17.1042 19.25 17.4 19.25 17.75C19.25 18.1 19.1292 18.3958 18.8875 18.6375C18.6458 18.8792 18.35 19 18 19ZM20 13.75C19.7167 13.75 19.4792 13.6542 19.2875 13.4625C19.0958 13.2708 19 13.0333 19 12.75C19 12.4667 19.0958 12.2292 19.2875 12.0375C19.4792 11.8458 19.7167 11.75 20 11.75H22C22.2833 11.75 22.5208 11.8458 22.7125 12.0375C22.9042 12.2292 23 12.4667 23 12.75C23 13.0333 22.9042 13.2708 22.7125 13.4625C22.5208 13.6542 22.2833 13.75 22 13.75H20Z" fill="#F6DD0E"/>
</g>
</svg>
