<svg width="20" height="20" viewBox="0 0 20 20" fill="none" xmlns="http://www.w3.org/2000/svg">
<mask id="mask0_4878_501" style="mask-type:alpha" maskUnits="userSpaceOnUse" x="0" y="0" width="20" height="20">
<rect width="20" height="20" fill="#D9D9D9"/>
</mask>
<g mask="url(#mask0_4878_501)">
<path d="M7.46271 11.1875C7.25146 11.1875 7.07292 11.1156 6.92708 10.9719C6.78125 10.8281 6.70833 10.65 6.70833 10.4375V5.0625L5.04167 6.72917C4.88889 6.88195 4.71063 6.95833 4.50688 6.95833C4.30326 6.95833 4.12736 6.88195 3.97917 6.72917C3.82639 6.58097 3.75 6.40507 3.75 6.20146C3.75 5.99771 3.82639 5.81944 3.97917 5.66667L6.9375 2.70833C7.0125 2.63889 7.09375 2.58681 7.18125 2.55208C7.26875 2.51736 7.3625 2.5 7.4625 2.5C7.5625 2.5 7.65625 2.51736 7.74375 2.55208C7.83125 2.58681 7.90972 2.63889 7.97917 2.70833L10.9375 5.66667C11.0903 5.81944 11.1667 5.99306 11.1667 6.1875C11.1667 6.38194 11.0903 6.55889 10.9375 6.71833C10.7847 6.86444 10.6076 6.9375 10.4062 6.9375C10.2049 6.9375 10.0278 6.86111 9.875 6.70833L8.20833 5.0625V10.4375C8.20833 10.65 8.13688 10.8281 7.99396 10.9719C7.85104 11.1156 7.67396 11.1875 7.46271 11.1875ZM12.4542 17.875C12.3542 17.875 12.2604 17.8576 12.1729 17.8229C12.0854 17.7882 12.0069 17.7361 11.9375 17.6667L8.97917 14.7083C8.82639 14.5568 8.75347 14.3801 8.76042 14.1781C8.76736 13.976 8.84722 13.7953 9 13.6358C9.15278 13.4897 9.32986 13.4167 9.53125 13.4167C9.73264 13.4167 9.90972 13.4931 10.0625 13.6458L11.7083 15.3125V9.9375C11.7083 9.725 11.7798 9.54688 11.9227 9.40313C12.0656 9.25938 12.2427 9.1875 12.454 9.1875C12.6652 9.1875 12.8438 9.25938 12.9896 9.40313C13.1354 9.54688 13.2083 9.725 13.2083 9.9375V15.3125L14.875 13.6458C15.0278 13.4931 15.206 13.4167 15.4098 13.4167C15.6134 13.4167 15.7893 13.4931 15.9375 13.6458C16.0903 13.794 16.1667 13.9699 16.1667 14.1735C16.1667 14.3773 16.0903 14.5556 15.9375 14.7083L12.9792 17.6667C12.9042 17.7361 12.8229 17.7882 12.7354 17.8229C12.6479 17.8576 12.5542 17.875 12.4542 17.875Z" fill="white"/>
</g>
</svg>
