<svg width="25" height="24" viewBox="0 0 25 24" fill="none" xmlns="http://www.w3.org/2000/svg">
<mask id="mask0_4757_144" style="mask-type:alpha" maskUnits="userSpaceOnUse" x="0" y="0" width="25" height="24">
<rect x="0.105469" width="23.9591" height="23.9591" fill="#D9D9D9"/>
</mask>
<g mask="url(#mask0_4757_144)">
<path d="M12.085 12.6861L6.84771 17.9232C6.75437 18.0167 6.63981 18.0666 6.50404 18.0729C6.36844 18.0794 6.24756 18.0295 6.14141 17.9232C6.03509 17.817 5.98193 17.6993 5.98193 17.57C5.98193 17.4407 6.03509 17.323 6.14141 17.2169L11.3785 11.9796L6.14141 6.74224C6.0479 6.6489 5.99799 6.53434 5.99167 6.39857C5.98518 6.26297 6.03509 6.14209 6.14141 6.03594C6.24756 5.92962 6.36528 5.87646 6.49456 5.87646C6.62384 5.87646 6.74155 5.92962 6.84771 6.03594L12.085 11.273L17.3223 6.03594C17.4157 5.94243 17.5302 5.89252 17.666 5.8862C17.8016 5.87971 17.9225 5.92962 18.0286 6.03594C18.135 6.14209 18.1881 6.25981 18.1881 6.38909C18.1881 6.51837 18.135 6.63609 18.0286 6.74224L12.7916 11.9796L18.0286 17.2169C18.1222 17.3102 18.1721 17.4248 18.1784 17.5605C18.1849 17.6961 18.135 17.817 18.0286 17.9232C17.9225 18.0295 17.8048 18.0827 17.6755 18.0827C17.5462 18.0827 17.4285 18.0295 17.3223 17.9232L12.085 12.6861Z" fill="#2F3139"/>
</g>
</svg>
