<svg width="24" height="24" viewBox="0 0 24 24" fill="none" xmlns="http://www.w3.org/2000/svg">
<mask id="mask0_4748_847" style="mask-type:alpha" maskUnits="userSpaceOnUse" x="0" y="0" width="24" height="24">
<rect width="24" height="24" fill="#D9D9D9"/>
</mask>
<g mask="url(#mask0_4748_847)">
<path d="M12 12.7078L6.75372 17.9538C6.66022 18.0474 6.54547 18.0974 6.40947 18.1038C6.27364 18.1103 6.15256 18.0603 6.04622 17.9538C5.93972 17.8474 5.88647 17.7295 5.88647 17.6C5.88647 17.4705 5.93972 17.3526 6.04622 17.2463L11.2922 12L6.04622 6.75376C5.95256 6.66026 5.90256 6.5455 5.89622 6.4095C5.88972 6.27367 5.93972 6.15259 6.04622 6.04625C6.15256 5.93975 6.27047 5.88651 6.39997 5.88651C6.52947 5.88651 6.64739 5.93975 6.75372 6.04625L12 11.2923L17.2462 6.04625C17.3397 5.95259 17.4545 5.90259 17.5905 5.89625C17.7263 5.88975 17.8474 5.93975 17.9537 6.04625C18.0602 6.15259 18.1135 6.2705 18.1135 6.4C18.1135 6.5295 18.0602 6.64742 17.9537 6.75376L12.7077 12L17.9537 17.2463C18.0474 17.3398 18.0974 17.4545 18.1037 17.5905C18.1102 17.7263 18.0602 17.8474 17.9537 17.9538C17.8474 18.0603 17.7295 18.1135 17.6 18.1135C17.4705 18.1135 17.3526 18.0603 17.2462 17.9538L12 12.7078Z" fill="white"/>
</g>
</svg>
