<svg width="24" height="24" viewBox="0 0 24 24" fill="none" xmlns="http://www.w3.org/2000/svg">
<path fill-rule="evenodd" clip-rule="evenodd" d="M23.5307 8.7124C23.5307 8.7124 23.5307 8.67969 23.5198 8.66879C23.4434 8.41799 23.367 8.1781 23.2797 7.93821C23.2469 7.84007 23.2033 7.73103 23.1705 7.63289C23.0941 7.42572 23.0068 7.21854 22.9086 7.02226C22.854 6.89141 22.7885 6.76056 22.7231 6.62971C22.6357 6.45525 22.5484 6.26988 22.4502 6.10632C22.3629 5.95366 22.2647 5.801 22.1774 5.64834C22.09 5.50659 22.0027 5.35393 21.9045 5.22308C21.719 4.95048 21.5225 4.67787 21.3042 4.42708C19.0887 1.72285 15.749 0 11.9945 0C7.82538 0 4.15825 2.1154 2.00819 5.34303C1.77899 5.69196 1.56071 6.05179 1.36426 6.42254C1.34243 6.47706 1.30969 6.53158 1.28786 6.57519C1.11323 6.91322 0.960437 7.25125 0.818554 7.61109C0.80764 7.6547 0.785812 7.68742 0.774898 7.73103C0.633015 8.11268 0.502046 8.49432 0.40382 8.89777C0.40382 8.90868 0.40382 8.93049 0.392906 8.94139C0.283765 9.36665 0.196453 9.79191 0.130969 10.2281C0.0873124 10.4898 0.0545703 10.7406 0.0327422 11.0132H0.0436562C0.0218281 11.2967 0 11.5911 0 11.8855C0 11.9291 0 11.9618 0 12.0055C0 12.1254 0.0109141 12.2344 0.0218281 12.3544C0.0218281 12.5179 0.0327422 12.6815 0.0436562 12.8451H0.0327422C0.0763984 13.532 0.185539 14.1863 0.338336 14.8405C0.34925 14.895 0.371078 14.9496 0.381992 15.0041C1.71351 20.1726 6.40655 24 11.9945 24C18.6303 24 24 18.6352 24 12.0055C24 10.8714 23.8254 9.7701 23.5307 8.72331V8.7124ZM11.9945 22.8987C7.21419 22.8987 3.14325 19.8019 1.66985 15.5057C1.71351 15.4621 1.76808 15.4075 1.7899 15.3857C1.83356 15.3421 1.85539 15.2985 1.85539 15.244V14.7969C1.85539 14.7424 1.83356 14.6879 1.7899 14.6552C1.74625 14.6115 1.70259 14.5897 1.64802 14.5897H1.40791C1.397 14.5243 1.37517 14.4698 1.36426 14.4044H1.8663C1.92087 14.4044 1.97544 14.3826 2.00819 14.3389C2.15007 14.1972 2.49932 13.8483 2.70669 13.6411C2.78308 13.5647 2.78308 13.4339 2.70669 13.3467C2.70669 13.3467 2.70669 13.3467 2.69577 13.3358C2.65211 13.2921 2.60846 13.2703 2.55389 13.2703H2.03001C2.03001 13.2703 1.92087 13.2485 1.88813 13.2049C1.84447 13.1613 1.7899 13.1068 1.73533 13.0522C1.69168 13.0086 1.66985 12.9323 1.70259 12.8778C1.73533 12.8233 1.7899 12.7796 1.85539 12.7796H1.8663C1.8663 12.7796 1.87722 12.7796 1.88813 12.7796L2.07367 12.965C2.07367 12.965 2.16098 13.0304 2.21555 13.0304H2.58663C2.58663 13.0304 2.69577 13.0522 2.72851 13.0959L2.75034 13.1177C2.75034 13.1177 2.83765 13.1831 2.89222 13.1831H3.5689C3.62347 13.1831 3.67804 13.2049 3.71078 13.2485L4.44202 13.9791C4.44202 13.9791 4.5075 14.0663 4.5075 14.1209V14.3935C4.5075 14.448 4.52933 14.5025 4.57299 14.5352C4.5839 14.5352 4.59482 14.557 4.60573 14.5679C4.64939 14.6115 4.67121 14.6552 4.67121 14.7097V14.8078C4.67121 14.8623 4.69304 14.9169 4.7367 14.9496C4.76944 14.9823 4.80218 15.015 4.83493 15.0477C4.91132 15.124 5.04229 15.124 5.1296 15.0477C5.16235 15.015 5.206 14.9714 5.22783 14.9496C5.27149 14.906 5.29332 14.8623 5.29332 14.8078V14.4807C5.29332 14.4262 5.31514 14.3716 5.3588 14.3389C5.50068 14.1972 5.86085 13.8373 6.00273 13.6956C6.04639 13.652 6.09004 13.6302 6.14461 13.6302H6.47203C6.5266 13.6302 6.58117 13.652 6.61392 13.6956L7.97817 15.0586C7.97817 15.0586 8.06549 15.124 8.12005 15.124C8.17462 15.124 8.2292 15.1022 8.26194 15.0586C8.34925 14.9714 8.44748 14.8732 8.53479 14.786C8.57845 14.7424 8.60027 14.6988 8.60027 14.6443C8.60027 14.5897 8.57845 14.5352 8.53479 14.5025C8.45839 14.4262 8.36016 14.328 8.28377 14.2517C8.24011 14.2081 8.21828 14.1645 8.21828 14.11C8.21828 14.0554 8.24011 14.0009 8.28377 13.9682C8.39291 13.8592 8.5457 13.7065 8.6221 13.6302C8.66576 13.5866 8.70941 13.5647 8.76398 13.5647H9.26603C9.3206 13.5647 9.37517 13.5429 9.40791 13.4993C9.51705 13.3903 9.75716 13.1504 9.8663 13.0413C9.90996 12.9977 9.93179 12.9541 9.93179 12.8996V11.4493C9.93179 11.3403 10.0191 11.2422 10.1392 11.2422H10.2483C10.2483 11.2422 10.3574 11.264 10.3902 11.3076C10.4447 11.3621 10.5211 11.4384 10.5757 11.493C10.6194 11.5366 10.6412 11.5802 10.6412 11.6347V11.8201C10.6412 11.8201 10.663 11.9073 10.6849 11.9291C10.7067 11.9509 10.7613 11.9727 10.794 11.9727C10.8813 11.9727 10.9577 11.8964 10.9577 11.8092V11.6674C10.9577 11.6674 10.9359 11.5584 10.8922 11.5257C10.8704 11.5039 10.8486 11.4821 10.8267 11.4602C10.7831 11.4166 10.7613 11.373 10.7613 11.3185C10.7613 11.264 10.7831 11.2095 10.8267 11.1767L12.2128 9.79191V8.89777C12.2128 8.89777 12.191 8.81054 12.1692 8.77783C12.1473 8.74512 12.0928 8.73421 12.0491 8.73421C11.9727 8.73421 11.9072 8.6906 11.8745 8.61427C11.8417 8.54884 11.8636 8.46161 11.9181 8.40709C12.1583 8.1672 12.4638 7.86188 12.5839 7.74194C12.6276 7.69832 12.6712 7.67651 12.7258 7.67651H13.588C13.588 7.67651 13.6971 7.6547 13.7299 7.61109L14.1774 7.16402C14.1774 7.16402 14.2647 7.09859 14.3192 7.09859H14.4175C14.5048 7.09859 14.5812 7.15311 14.603 7.22944C14.6357 7.30577 14.6139 7.393 14.5593 7.45843C14.3411 7.67651 14.0791 7.92731 13.97 8.04725C13.9263 8.09087 13.9045 8.13448 13.9045 8.189V8.9741C13.9045 9.06134 13.9591 9.13766 14.0355 9.15947C14.1119 9.19219 14.1992 9.17038 14.2647 9.11586C14.4393 8.94139 14.6248 8.75602 14.7121 8.66879C14.7558 8.62517 14.7776 8.58155 14.7776 8.52703V7.82917C14.7776 7.77465 14.7995 7.72013 14.8431 7.68742C14.8868 7.6547 14.9304 7.62199 14.985 7.62199H15.4543C15.5089 7.62199 15.5634 7.60018 15.5962 7.55657C15.8145 7.33848 16.5675 6.5861 16.7858 6.35711C16.8295 6.31349 16.8731 6.29169 16.9277 6.29169H17.397C17.4516 6.29169 17.5061 6.26988 17.5389 6.22626C17.5825 6.18264 17.6044 6.13903 17.6044 6.08451V5.84462C17.6044 5.7901 17.5825 5.73557 17.5389 5.70286C17.3861 5.5502 16.9604 5.12494 16.8076 4.97229C16.764 4.92867 16.7203 4.90686 16.6658 4.90686H14.2101C14.1555 4.90686 14.101 4.88505 14.0682 4.84144C13.9045 4.67787 13.4461 4.2199 13.2824 4.05634C13.2387 4.01272 13.1951 3.99091 13.1405 3.99091H11.2851C11.2306 3.99091 11.176 3.9691 11.1432 3.92549C10.9795 3.76193 10.5211 3.30395 10.3574 3.14039C10.3138 3.09677 10.2701 3.07497 10.2156 3.07497C10.0846 3.07497 9.84448 3.07497 9.72442 3.07497C9.66985 3.07497 9.61528 3.05316 9.58254 3.00954C9.397 2.82417 8.80764 2.23535 8.6221 2.04998C8.57844 2.00636 8.53479 1.98455 8.48022 1.98455H7.61801C8.97135 1.38483 10.4557 1.0468 12.0164 1.0468C14.7995 1.0468 17.3315 2.1045 19.2633 3.81645H18.8922C18.8377 3.81645 18.7831 3.83826 18.7503 3.88187C18.7285 3.90368 18.7176 3.91458 18.6958 3.93639C18.6521 3.98001 18.6303 4.02363 18.6303 4.07815V5.5393C18.6303 5.59382 18.6085 5.64834 18.5648 5.68105C18.4447 5.801 18.1719 6.0736 18.0518 6.19355C18.0082 6.23716 17.9864 6.28078 17.9864 6.3353V7.25125C17.9864 7.30577 18.0082 7.36029 18.0518 7.393C18.2046 7.54566 18.5975 7.93821 18.6194 7.96002C18.6194 7.96002 19.6344 6.94593 19.8854 6.69514C19.9291 6.65152 19.9727 6.62971 20.0273 6.62971H20.7367C20.7367 6.62971 20.8458 6.65152 20.8786 6.69514C21.0641 6.88051 21.6426 7.45843 22.1446 7.96002C22.6357 9.19219 22.9086 10.5334 22.9086 11.94C22.9086 17.9482 18.0082 22.8442 11.9945 22.8442V22.8987Z" fill="#5B6187"/>
<path fill-rule="evenodd" clip-rule="evenodd" d="M12.8131 18.3735C12.8131 18.3735 12.7476 18.2862 12.7476 18.2317V17.97C12.7476 17.97 12.7476 17.9264 12.7258 17.9046L12.693 17.8719C12.6384 17.8174 12.5511 17.7956 12.4747 17.8283C12.3983 17.861 12.3547 17.9264 12.3547 18.0136V18.0354C12.3547 18.0354 12.3547 18.0791 12.3328 18.1009C12.3328 18.1009 12.311 18.1227 12.3001 18.1336C12.2674 18.1663 12.2128 18.1881 12.1582 18.1881C12.1037 18.1881 12.0491 18.1663 12.0163 18.1336C11.8745 17.9809 11.6453 17.7628 11.5361 17.6538C11.4925 17.6102 11.4488 17.5884 11.3942 17.5884H11.0013C10.9468 17.5884 10.8922 17.6102 10.8595 17.6538C10.6848 17.8283 10.2046 18.3081 10.0409 18.4716C9.99724 18.5152 9.95359 18.537 9.89902 18.537H9.61525C9.61525 18.537 9.50611 18.5588 9.47337 18.6025C9.39697 18.6788 9.266 18.8096 9.20052 18.8751C9.15686 18.9187 9.13503 18.9623 9.13503 19.0168V19.4857C9.13503 19.4857 9.15686 19.5947 9.20052 19.6275C9.20052 19.6275 9.21143 19.6384 9.22234 19.6493C9.266 19.6929 9.28783 19.7365 9.28783 19.791V20.1399C9.28783 20.1945 9.30966 20.249 9.35331 20.2817C9.37514 20.3035 9.40788 20.3362 9.44063 20.3689C9.48428 20.4125 9.52794 20.4344 9.58251 20.4344C9.63708 20.4344 9.69165 20.4125 9.72439 20.3689C9.75713 20.3362 9.77896 20.3144 9.8117 20.2817C9.85536 20.2381 9.89902 20.2163 9.95359 20.2163H10.3356C10.3356 20.2163 10.4447 20.1945 10.4775 20.1508C10.5102 20.1181 10.5429 20.0854 10.5757 20.0527C10.6193 20.0091 10.663 19.9873 10.7176 19.9873H11.2305C11.2305 19.9873 11.3397 20.0091 11.3724 20.0527L12.1691 20.8487C12.1691 20.8487 12.2565 20.9141 12.311 20.9141H12.824C12.8786 20.9141 12.9331 20.8923 12.9659 20.8487L13.4352 20.3798C13.4352 20.3798 13.5007 20.2926 13.5007 20.2381V20.0854C13.5007 20.0854 13.5225 19.9764 13.5661 19.9437L13.5989 19.911C13.5989 19.911 13.6644 19.8237 13.6644 19.7692V19.3003C13.6644 19.3003 13.6425 19.1913 13.5989 19.1586C13.4352 18.995 12.9877 18.5479 12.824 18.3844L12.8131 18.3735Z" fill="#5B6187"/>
<path fill-rule="evenodd" clip-rule="evenodd" d="M12.5178 16.5635H12.2887C12.2887 16.5635 12.2451 16.5635 12.2342 16.5416C12.2015 16.5089 12.1469 16.4544 12.1142 16.4216C12.1033 16.4107 12.0815 16.3998 12.0596 16.3998H11.8306C11.8306 16.3998 11.7869 16.3998 11.776 16.4216C11.776 16.4216 11.776 16.4216 11.7651 16.4325C11.7324 16.4653 11.6778 16.4653 11.6451 16.4325C11.6124 16.3998 11.5796 16.3671 11.5578 16.3453C11.5469 16.3344 11.5251 16.3235 11.5033 16.3235H11.3506C11.3506 16.3235 11.2851 16.3453 11.2742 16.378C11.2633 16.4107 11.2742 16.4435 11.296 16.4653L11.5469 16.7162C11.5469 16.7162 11.5796 16.738 11.6015 16.738H11.7433C11.7433 16.738 11.7869 16.738 11.7978 16.7598C11.8851 16.8471 12.1578 17.1198 12.2451 17.2071C12.256 17.218 12.2778 17.2289 12.2996 17.2289H12.4196C12.4196 17.2289 12.4633 17.2289 12.4742 17.2071C12.5069 17.1744 12.5615 17.1198 12.5942 17.0871C12.6051 17.0762 12.6269 17.0653 12.6487 17.0653H12.8124C12.8124 17.0653 12.856 17.0653 12.8669 17.0871C12.9324 17.1525 13.1069 17.3271 13.1615 17.3816C13.1724 17.3925 13.1942 17.4035 13.2051 17.4035C13.2378 17.4035 13.2706 17.3816 13.2815 17.3489C13.2924 17.3162 13.2815 17.2835 13.2596 17.2616C13.0524 17.0544 12.6706 16.6725 12.5724 16.5744C12.5615 16.5635 12.5396 16.5525 12.5178 16.5525V16.5635Z" fill="#5B6187"/>
<path fill-rule="evenodd" clip-rule="evenodd" d="M9.26565 16.5748C9.3202 16.5203 9.46202 16.3785 9.51656 16.3239C9.52747 16.313 9.53838 16.2912 9.53838 16.2694V15.7676C9.53838 15.7676 9.53838 15.7239 9.5602 15.713L9.61474 15.6585C9.61474 15.6585 9.64747 15.5712 9.61474 15.5385C9.58202 15.5057 9.54929 15.473 9.51656 15.4403C9.50565 15.4294 9.48384 15.4185 9.46202 15.4185C9.4402 15.4185 9.41838 15.4185 9.40747 15.4403C9.27656 15.5712 8.9602 15.8876 8.87293 15.9748C8.86202 15.9857 8.8402 15.9966 8.81838 15.9966H8.64384C8.64384 15.9966 8.6002 15.9966 8.58929 16.0185C8.57838 16.0294 8.56747 16.0512 8.56747 16.073V16.2476C8.56747 16.2476 8.56747 16.2912 8.58929 16.3021C8.64384 16.3566 8.78565 16.4985 8.85111 16.5639C8.86202 16.5748 8.88383 16.5857 8.90565 16.5857H9.21111C9.21111 16.5857 9.25474 16.5857 9.26565 16.5639V16.5748Z" fill="#5B6187"/>
<path fill-rule="evenodd" clip-rule="evenodd" d="M9.9208 14.5464C9.9208 14.5464 9.97535 14.5027 9.97535 14.47V14.4373C9.97535 14.4373 9.97535 14.3936 9.99717 14.3827C10.0081 14.3718 10.0299 14.35 10.0517 14.3282C10.0735 14.3064 10.0735 14.2954 10.0735 14.2736V14.1427C10.0735 14.1427 10.0408 14.0554 9.98626 14.0554H9.88808C9.88808 14.0554 9.8008 14.0882 9.8008 14.1427V14.4809C9.8008 14.4809 9.8008 14.5245 9.82262 14.5354C9.84444 14.5573 9.87717 14.5682 9.90989 14.5573L9.9208 14.5464Z" fill="#5B6187"/>
<path fill-rule="evenodd" clip-rule="evenodd" d="M8.1414 16.4874C8.01049 16.3565 7.4214 15.7565 7.29049 15.6365C7.27958 15.6256 7.25776 15.6147 7.23594 15.6147H7.10504C7.10504 15.6147 7.03958 15.6365 7.02867 15.6692C7.01776 15.7019 7.02867 15.7347 7.05049 15.7565L7.57413 16.2801C7.57413 16.2801 7.59594 16.3128 7.59594 16.3347V16.4656C7.59594 16.4656 7.59594 16.5092 7.61776 16.5201L7.91231 16.8147C7.91231 16.8147 7.94504 16.8365 7.96685 16.8365H8.08685C8.08685 16.8365 8.13049 16.8365 8.1414 16.8147C8.15231 16.7928 8.16322 16.7819 8.16322 16.7601C8.16322 16.6947 8.16322 16.5965 8.16322 16.5528C8.16322 16.531 8.16322 16.5092 8.1414 16.4983V16.4874Z" fill="#5B6187"/>
<path fill-rule="evenodd" clip-rule="evenodd" d="M11.0886 12.344L11.3068 12.1258C11.3068 12.1258 11.3396 12.104 11.3614 12.104H11.6123C11.6123 12.104 11.6559 12.104 11.6668 12.0822L11.8086 11.9404C11.8086 11.9404 11.8414 11.9185 11.8632 11.9185H11.9614C11.9614 11.9185 12.005 11.9185 12.0159 11.8967C12.0486 11.864 12.125 11.7876 12.1577 11.7549C12.1686 11.744 12.1796 11.7222 12.1796 11.7004V11.5149C12.1796 11.5149 12.1795 11.4713 12.2014 11.4604C12.2232 11.4385 12.2668 11.3949 12.2995 11.3622C12.3105 11.3513 12.3214 11.3294 12.3214 11.3076V11.2422C12.3214 11.2422 12.3214 11.1985 12.2995 11.1876C12.2886 11.1767 12.2559 11.144 12.2341 11.1222C12.2123 11.1004 12.1796 11.0894 12.1468 11.1004C12.1141 11.1113 12.0923 11.144 12.0923 11.1767V11.3294C12.0923 11.3294 12.0923 11.3731 12.0705 11.384C11.9941 11.4604 11.7432 11.7113 11.6559 11.7985C11.645 11.8094 11.6232 11.8204 11.6014 11.8204H11.3068C11.3068 11.8204 11.2632 11.8204 11.2523 11.8422C11.1868 11.9076 11.0123 12.0822 10.9468 12.1476C10.9359 12.1585 10.925 12.1804 10.925 12.2022V12.2894C10.925 12.2894 10.9468 12.3549 10.9795 12.3658C11.0123 12.3767 11.045 12.3658 11.0668 12.344H11.0886Z" fill="#5B6187"/>
<path fill-rule="evenodd" clip-rule="evenodd" d="M12.4092 10.9152C12.4092 10.9152 12.5183 10.8061 12.5838 10.7407C12.5947 10.7298 12.6056 10.7079 12.6056 10.6861C12.6056 10.6643 12.6056 10.6425 12.5838 10.6316C12.5401 10.5879 12.4747 10.5225 12.4092 10.457C12.3874 10.4352 12.3547 10.4243 12.3219 10.4352C12.2892 10.4461 12.2674 10.4789 12.2674 10.5116V10.7407C12.2674 10.7407 12.2674 10.7843 12.2892 10.7952L12.4092 10.9152Z" fill="#5B6187"/>
</svg>
